<svg width="201" height="44" viewBox="0 0 201 44" fill="none" xmlns="http://www.w3.org/2000/svg">
<path fill-rule="evenodd" clip-rule="evenodd" d="M22.0053 43.5329C33.8816 43.5329 43.5107 33.8916 43.5107 22C43.5107 10.1085 33.8816 0.467163 22.0053 0.467163C10.1289 0.467163 0.499878 10.1085 0.499878 22C0.499878 33.8916 10.1289 43.5329 22.0053 43.5329ZM0.892351 22C0.892351 33.6762 10.344 43.1399 22.0053 43.1399C29.5967 43.1399 36.2526 39.1294 39.973 33.1056C36.4999 37.9936 30.7956 41.1804 24.3494 41.1804C13.7687 41.1804 5.18805 32.5942 5.18805 21.9946C5.18805 11.3951 13.7687 2.81425 24.3494 2.81425C30.7956 2.81425 36.4999 6.00111 39.973 10.8891C36.2526 4.87063 29.5967 0.860138 22.0053 0.860138C10.344 0.860138 0.892351 10.3238 0.892351 22ZM24.3547 40.3999C29.3816 40.3999 33.9354 38.3812 37.2526 35.1028C34.3655 37.4337 30.6988 38.8333 26.6988 38.8333C17.4139 38.8333 9.88698 31.2968 9.88698 22C9.88698 12.7032 17.4139 5.16671 26.6988 5.16671C30.6935 5.16671 34.3655 6.56096 37.2526 8.89728C33.9354 5.62428 29.3816 3.6002 24.3547 3.6002C14.2042 3.6002 5.973 11.8365 5.973 22C5.973 32.1635 14.1988 40.3999 24.3494 40.3999H24.3547ZM34.344 8.78423C32.0967 7.47611 29.4838 6.72784 26.6988 6.72784C18.2795 6.72784 11.4515 13.5645 11.4515 21.9946C11.4515 30.4248 18.2795 37.2614 26.6988 37.2614C29.4838 37.2614 32.0967 36.5132 34.344 35.2051C32.8171 35.7757 31.1612 36.0879 29.4354 36.0879C21.6612 36.0879 15.3601 29.7788 15.3601 21.9946C15.3601 14.2105 21.6612 7.90139 29.4354 7.90139C31.1612 7.90139 32.8171 8.21361 34.344 8.78423ZM32.9515 11.4274C33.6182 11.4274 34.2741 11.492 34.9085 11.6104C33.2741 10.7437 31.4085 10.2539 29.43 10.2539C22.9515 10.2539 17.6988 15.5133 17.6988 22C17.6988 28.4868 22.9515 33.7462 29.43 33.7462C31.4085 33.7462 33.2741 33.2563 34.9085 32.3896C34.2741 32.5081 33.6182 32.5727 32.9515 32.5727C27.1236 32.5727 22.3924 27.8408 22.3924 22C22.3924 16.1592 27.1182 11.4274 32.9515 11.4274ZM35.9408 15.1849C35.0268 14.7811 34.016 14.5604 32.9515 14.5604C28.8494 14.5604 25.5214 17.8926 25.5214 22C25.5214 26.1074 28.8494 29.4396 32.9515 29.4396C34.016 29.4396 35.0268 29.2189 35.9408 28.8152C32.5053 28.4491 29.8279 25.5422 29.8279 22C29.8279 18.4579 32.5053 15.5509 35.9408 15.1849ZM33.7365 22C33.7365 23.6204 35.0483 24.9339 36.6666 24.9339C38.2849 24.9339 39.5967 23.6204 39.5967 22C39.5967 20.3797 38.2849 19.0662 36.6666 19.0662C35.0483 19.0662 33.7365 20.3797 33.7365 22Z" fill="white"/>
<path d="M134.154 23.8411C132.154 23.6634 130.589 21.9892 130.589 19.9436H136.218C136.922 19.9436 137.487 19.373 137.487 18.6732C137.487 17.9734 136.917 17.4027 136.218 17.4027H130.551C128.39 17.4027 126.643 15.6478 126.643 13.4891H136.223C139.084 13.4891 141.406 15.8093 141.406 18.6786C141.406 19.3999 141.256 20.0943 140.992 20.7188C142.476 21.6339 143.46 23.2704 143.46 25.1384C143.46 28.0023 141.137 30.3278 138.277 30.3278H130.557C128.395 30.3278 126.648 28.5729 126.648 26.4142H138.283C138.987 26.4142 139.551 25.8436 139.551 25.1438C139.551 24.444 138.981 23.8734 138.283 23.8734H134.175L134.154 23.8411Z" fill="white"/>
<path fill-rule="evenodd" clip-rule="evenodd" d="M67.7878 21.8977C67.7341 17.3489 64.0352 13.6775 59.4814 13.6775C54.9276 13.6775 51.1749 17.4027 51.1749 21.9946C51.1749 26.5865 54.8954 30.3117 59.4814 30.3117C61.39 30.3117 63.1481 29.6657 64.5513 28.5837C65.2556 29.6226 66.4438 30.3117 67.7932 30.3117V21.8923L67.7878 21.8977ZM63.8792 21.9946C63.8792 24.4278 61.9115 26.3981 59.4814 26.3981C57.0513 26.3981 55.0835 24.4278 55.0835 21.9946C55.0835 19.5614 57.0513 17.5911 59.4814 17.5911C61.9115 17.5911 63.8792 19.5614 63.8792 21.9946Z" fill="white"/>
<path fill-rule="evenodd" clip-rule="evenodd" d="M115.981 13.6775C120.535 13.6775 124.24 17.3489 124.288 21.8977V30.3171C122.938 30.3171 121.75 29.6334 121.046 28.5891C119.643 29.6711 117.885 30.3171 115.976 30.3171C111.385 30.3171 107.664 26.5919 107.664 22C107.664 17.4081 111.385 13.6829 115.976 13.6829L115.981 13.6775ZM120.379 21.9946C120.379 24.4278 118.412 26.3981 115.981 26.3981C113.551 26.3981 111.584 24.4278 111.584 21.9946C111.584 19.5614 113.551 17.5911 115.981 17.5911C118.412 17.5911 120.379 19.5614 120.379 21.9946Z" fill="white"/>
<path d="M176.686 13.6775H180.594V30.5109H176.686V24.1587H168.67V30.5109H164.761V13.6775H168.67V20.6273H176.686V13.6775Z" fill="white"/>
<path fill-rule="evenodd" clip-rule="evenodd" d="M154.105 30.3171C158.697 30.3171 162.412 26.5919 162.412 22C162.412 17.4081 158.691 13.6829 154.105 13.6829C149.519 13.6829 145.799 17.4081 145.799 22C145.799 26.5919 149.519 30.3171 154.105 30.3171ZM154.105 26.4035C156.535 26.4035 158.503 24.4332 158.503 22C158.503 19.5668 156.535 17.5965 154.105 17.5965C151.675 17.5965 149.707 19.5668 149.707 22C149.707 24.4332 151.675 26.4035 154.105 26.4035Z" fill="white"/>
<path fill-rule="evenodd" clip-rule="evenodd" d="M100.148 30.3171H88.7126V19.9436C88.7664 16.4768 91.589 13.6775 95.0675 13.6775H96.3363C99.1427 13.6775 101.422 15.9546 101.422 18.7647C101.422 19.2115 101.363 19.6422 101.256 20.0567C103.584 20.5627 105.331 22.6406 105.331 25.1277C105.331 27.9915 103.008 30.3171 100.148 30.3171ZM101.417 25.1277C101.417 24.4224 100.847 23.8572 100.148 23.8572H92.6212V26.4035H100.148C100.852 26.4035 101.417 25.8329 101.417 25.133V25.1277ZM96.3309 19.9382C96.9814 19.9382 97.5029 19.4107 97.5029 18.7647C97.5029 18.1187 96.9761 17.5911 96.3309 17.5911H95.0621C93.7449 17.5911 92.6696 18.6355 92.6212 19.9382H96.3309Z" fill="white"/>
<path d="M80.6965 13.6775C80.6965 17.139 77.8954 19.9436 74.4384 19.9436H74.0459V13.6775H70.1373V27.184C70.1373 28.9121 71.5405 30.3171 73.2663 30.3171H74.0513V23.8572H76.0083C79.5728 23.8572 82.4599 26.748 82.4599 30.3171H86.3685C86.3685 26.4681 84.2717 23.1089 81.1642 21.3163C83.2771 19.4537 84.6104 16.7191 84.6104 13.6775H80.6965Z" fill="white"/>
<path fill-rule="evenodd" clip-rule="evenodd" d="M198.191 21.5047V26.3981H200.342V30.3117H183.723V13.6775H190.369C194.686 13.6775 198.191 17.182 198.191 21.5101V21.5047ZM187.632 17.5911H190.369C192.53 17.5911 194.277 19.3461 194.277 21.5047V26.3981H187.632V17.5911Z" fill="white"/>
</svg>
