<svg width="24" height="24" viewBox="0 0 24 24" fill="none" xmlns="http://www.w3.org/2000/svg">
<path d="M5.05339 3.24373C4.91789 3.10198 4.73226 3.01893 4.53627 3.01238C4.34028 3.00583 4.14952 3.07631 4.00486 3.20871C3.8602 3.34111 3.77315 3.5249 3.76236 3.7207C3.75157 3.9165 3.8179 4.10874 3.94714 4.25624L5.74714 6.23436C2.34401 8.32498 0.881513 11.55 0.815888 11.7C0.774354 11.7962 0.75293 11.8999 0.75293 12.0047C0.75293 12.1095 0.774354 12.2132 0.815888 12.3094C0.844013 12.375 1.64089 14.1375 3.40339 15.9094C5.75651 18.2531 8.72839 19.5 12.0003 19.5C13.6812 19.5067 15.3449 19.1618 16.8846 18.4875L18.9471 20.7562C19.0174 20.833 19.1028 20.8943 19.1981 20.9363C19.2933 20.9783 19.3962 21 19.5003 21C19.6873 20.9981 19.8673 20.9282 20.0065 20.8031C20.0802 20.7373 20.14 20.6574 20.1824 20.5681C20.2248 20.4789 20.2489 20.382 20.2532 20.2833C20.2576 20.1846 20.2422 20.086 20.2079 19.9933C20.1735 19.9007 20.121 19.8158 20.0534 19.7437L5.05339 3.24373ZM9.48776 10.3594L13.3971 14.6531C12.9671 14.8818 12.4873 15.0009 12.0003 15C11.4596 15.0001 10.9289 14.8542 10.4644 14.5775C9.99982 14.3009 9.61868 13.9038 9.36125 13.4283C9.10383 12.9528 8.97968 12.4166 9.00195 11.8764C9.02422 11.3362 9.19208 10.812 9.48776 10.3594ZM12.0003 18C9.11276 18 6.59089 16.95 4.50964 14.8781C3.6474 14.0329 2.91734 13.0626 2.34401 12C2.78464 11.175 4.20026 8.85936 6.77839 7.36873L8.46589 9.22499C7.81543 10.0615 7.48103 11.1007 7.52161 12.1596C7.56219 13.2185 7.97514 14.2291 8.68772 15.0134C9.4003 15.7976 10.3668 16.3053 11.4169 16.4469C12.4671 16.5885 13.5335 16.355 14.4284 15.7875L15.8065 17.3062C14.5916 17.771 13.301 18.0063 12.0003 18ZM23.1846 12.3094C23.1471 12.3937 22.2003 14.4937 20.0534 16.4156C19.9157 16.5359 19.7393 16.6025 19.5565 16.6031C19.4513 16.6044 19.3472 16.5823 19.2516 16.5385C19.1559 16.4948 19.0712 16.4304 19.0034 16.35C18.9375 16.2767 18.8867 16.1912 18.8539 16.0983C18.821 16.0055 18.8068 15.907 18.812 15.8086C18.8173 15.7103 18.8418 15.6139 18.8843 15.525C18.9268 15.4361 18.9864 15.3565 19.0596 15.2906C20.1074 14.3507 20.9859 13.2376 21.6565 12C21.0816 10.9356 20.3518 9.96244 19.4909 9.11248C17.4096 7.04998 14.8878 5.99998 12.0003 5.99998C11.3908 5.99753 10.7823 6.04772 10.1815 6.14998C9.98541 6.17994 9.78538 6.13197 9.6242 6.01634C9.46301 5.90071 9.35347 5.72659 9.31901 5.53123C9.30293 5.43397 9.30618 5.33448 9.32858 5.23847C9.35098 5.14246 9.39209 5.0518 9.44956 4.9717C9.50703 4.89159 9.57973 4.8236 9.6635 4.77161C9.74727 4.71963 9.84047 4.68467 9.93776 4.66874C10.6194 4.55517 11.3093 4.49873 12.0003 4.49998C15.2721 4.49998 18.244 5.74686 20.5971 8.09061C22.3596 9.86248 23.1565 11.625 23.1846 11.7C23.2262 11.7962 23.2476 11.8999 23.2476 12.0047C23.2476 12.1095 23.2262 12.2132 23.1846 12.3094ZM12.5628 9.05624C12.4655 9.03777 12.3728 9.00032 12.29 8.94604C12.2073 8.89176 12.136 8.82171 12.0802 8.73987C11.9677 8.57461 11.9255 8.37141 11.9628 8.17498C12.0001 7.97856 12.1139 7.80499 12.2791 7.69247C12.4444 7.57995 12.6476 7.53769 12.844 7.57499C13.8003 7.76202 14.6708 8.25257 15.3261 8.97375C15.9815 9.69494 16.3867 10.6083 16.4815 11.5781C16.4998 11.7757 16.439 11.9725 16.3125 12.1254C16.186 12.2782 16.004 12.3747 15.8065 12.3937H15.7315C15.5459 12.3945 15.3669 12.3255 15.2297 12.2005C15.0926 12.0755 15.0073 11.9036 14.9909 11.7187C14.9262 11.0729 14.655 10.4651 14.2177 9.98546C13.7803 9.50585 13.2 9.18 12.5628 9.05624Z" fill="#939393"/>
</svg>
