<svg width="80" height="80" viewBox="0 0 80 80" fill="none" xmlns="http://www.w3.org/2000/svg">
<circle cx="40" cy="40" r="40" fill="#F3F3F3"/>
<g clip-path="url(#clip0_437_5)">
<path d="M26.0465 28.6887C25.3442 28.6887 24.6707 28.9677 24.174 29.4644C23.6774 29.961 23.3984 30.6345 23.3984 31.3368V55.1696C23.3984 55.8719 23.6774 56.5455 24.174 57.0421C24.6707 57.5387 25.3442 57.8177 26.0465 57.8177H55.1754C55.8778 57.8177 56.5513 57.5387 57.0479 57.0421C57.5445 56.5455 57.8235 55.8719 57.8235 55.1696V31.3368C57.8235 30.6345 57.5445 29.961 57.0479 29.4644C56.5513 28.9677 55.8778 28.6887 55.1754 28.6887H49.8793M31.3427 23.3926V33.9849M49.8793 23.3926V33.9849M31.3427 28.6887H44.5831" stroke="#145FAD" stroke-width="1.7" stroke-linecap="round" stroke-linejoin="round"/>
<path d="M39.1519 36.2886C39.2659 35.995 39.466 35.7427 39.7259 35.5648C39.9858 35.3869 40.2934 35.2917 40.6083 35.2917C40.9233 35.2917 41.2309 35.3869 41.4908 35.5648C41.7507 35.7427 41.9508 35.995 42.0648 36.2886L43.7596 40.605H48.2878C48.5839 40.6276 48.8677 40.7327 49.1071 40.9085C49.3465 41.0842 49.5318 41.3235 49.6421 41.5992C49.7524 41.8749 49.7832 42.176 49.731 42.4683C49.6789 42.7607 49.5458 43.0325 49.347 43.2531L45.3484 46.8545L47.0432 50.244C47.1966 50.5416 47.2486 50.8812 47.1912 51.211C47.1339 51.5408 46.9703 51.8429 46.7254 52.0712C46.4822 52.3024 46.1731 52.4522 45.8409 52.4996C45.5087 52.5471 45.17 52.4899 44.8718 52.336L40.6083 50.0057L36.3449 52.336C36.0467 52.4899 35.708 52.5471 35.3758 52.4996C35.0436 52.4522 34.7345 52.3024 34.4913 52.0712C34.2464 51.8429 34.0828 51.5408 34.0255 51.211C33.9681 50.8812 34.0201 50.5416 34.1735 50.244L35.8683 46.8545L31.8697 43.2531C31.6708 43.0325 31.5378 42.7607 31.4856 42.4683C31.4335 42.176 31.4643 41.8749 31.5746 41.5992C31.6849 41.3235 31.8702 41.0842 32.1096 40.9085C32.349 40.7327 32.6328 40.6276 32.9289 40.605H37.4571L39.1519 36.2886Z" stroke="#145FAD" stroke-width="1.7" stroke-linecap="round" stroke-linejoin="round"/>
</g>
<defs>
<clipPath id="clip0_437_5">
<rect width="37.0732" height="37.0732" fill="white" transform="translate(22.0703 22.0688)"/>
</clipPath>
</defs>
</svg>
