<svg width="21" height="21" viewBox="0 0 21 21" fill="none" xmlns="http://www.w3.org/2000/svg">
<g clip-path="url(#clip0_182_71)">
<path d="M2.1773 3.97155C1.79254 3.97155 1.42354 4.12439 1.15147 4.39646C0.879408 4.66852 0.726563 5.03753 0.726562 5.42229V18.4789C0.726563 18.8637 0.879408 19.2327 1.15147 19.5048C1.42354 19.7768 1.79254 19.9297 2.1773 19.9297H18.1354C18.5202 19.9297 18.8892 19.7768 19.1613 19.5048C19.4333 19.2327 19.5862 18.8637 19.5862 18.4789V5.42229C19.5862 5.03753 19.4333 4.66852 19.1613 4.39646C18.8892 4.12439 18.5202 3.97155 18.1354 3.97155H15.234M5.07878 1.07007V6.87302M15.234 1.07007V6.87302M5.07878 3.97155H12.3325" stroke="white" stroke-width="1.38966" stroke-linecap="round" stroke-linejoin="round"/>
<path d="M9.36189 8.13525C9.42434 7.9744 9.53395 7.83618 9.67634 7.73872C9.81873 7.64126 9.98725 7.58911 10.1598 7.58911C10.3323 7.58911 10.5009 7.64126 10.6433 7.73872C10.7856 7.83618 10.8953 7.9744 10.9577 8.13525L11.8862 10.5H14.3669C14.5292 10.5123 14.6846 10.5699 14.8158 10.6662C14.9469 10.7625 15.0485 10.8936 15.1089 11.0446C15.1693 11.1957 15.1862 11.3606 15.1576 11.5208C15.129 11.6809 15.0562 11.8299 14.9472 11.9507L12.7566 13.9237L13.6851 15.7806C13.7691 15.9437 13.7976 16.1297 13.7662 16.3104C13.7348 16.4911 13.6452 16.6566 13.511 16.7817C13.3778 16.9083 13.2084 16.9904 13.0264 17.0163C12.8444 17.0423 12.6589 17.011 12.4955 16.9267L10.1598 15.6501L7.82411 16.9267C7.66074 17.011 7.47517 17.0423 7.29318 17.0163C7.11119 16.9904 6.94182 16.9083 6.80859 16.7817C6.67444 16.6566 6.58483 16.4911 6.5534 16.3104C6.52197 16.1297 6.55045 15.9437 6.6345 15.7806L7.56297 13.9237L5.37236 11.9507C5.26343 11.8299 5.19054 11.6809 5.16197 11.5208C5.1334 11.3606 5.15028 11.1957 5.21069 11.0446C5.27111 10.8936 5.37265 10.7625 5.5038 10.6662C5.63494 10.5699 5.79044 10.5123 5.95265 10.5H8.43342L9.36189 8.13525Z" stroke="white" stroke-width="1.38966" stroke-linecap="round" stroke-linejoin="round"/>
</g>
<defs>
<clipPath id="clip0_182_71">
<rect width="20.3103" height="20.3103" fill="white" transform="translate(0 0.344727)"/>
</clipPath>
</defs>
</svg>
