<svg width="204" height="89" viewBox="0 0 204 89" fill="none" xmlns="http://www.w3.org/2000/svg">
<path d="M8.48306 63.3447L8.6186 40.998L20.7979 40.9994L20.7987 37.6499L4.75285 37.6484L4.75 63.344L8.48306 63.3447Z" fill="white"/>
<path d="M18.334 47.3332C18.2726 47.3689 18.2113 47.4046 18.1506 47.4417C17.9687 47.5523 17.7911 47.6685 17.6185 47.792C17.5607 47.8326 17.5036 47.8747 17.4473 47.9168C17.3338 48.0017 17.2233 48.0888 17.1141 48.1786C16.9508 48.3135 16.7924 48.454 16.639 48.5996C16.537 48.6966 16.4371 48.7965 16.3401 48.8985C16.1939 49.0519 16.0533 49.2096 15.9185 49.3729C15.7651 49.5584 15.6203 49.751 15.4819 49.9487C15.4334 50.0179 15.3863 50.0878 15.34 50.1584C14.9555 50.7456 14.6387 51.3819 14.4012 52.0561C14.3776 52.1232 14.3548 52.191 14.3327 52.2587C14.1608 52.7888 14.0374 53.341 13.9682 53.9103C13.9546 54.0231 13.9432 54.1358 13.9339 54.2499C13.9139 54.4918 13.9032 54.7365 13.9032 54.9833C13.9032 56.5037 14.2885 57.9355 14.9662 59.1847C15.0339 59.3096 15.1046 59.433 15.178 59.5543C15.2515 59.6756 15.3278 59.7947 15.407 59.9117C15.5333 60.0993 15.6674 60.2813 15.8072 60.4575C17.3338 62.383 19.6473 63.6565 22.2639 63.7892C22.4144 63.797 22.5657 63.8006 22.7176 63.8006C22.8289 63.8006 22.9402 63.7985 23.0508 63.7942C25.7787 63.6929 28.1877 62.3509 29.7365 60.3155C29.7793 60.2591 29.8221 60.2014 29.8634 60.1436C29.9754 59.9895 30.0824 59.8311 30.1837 59.6691C30.2565 59.5536 30.3264 59.4358 30.3942 59.316C30.4463 59.224 30.4969 59.1305 30.5461 59.0363C30.6153 58.9036 30.6817 58.7702 30.7437 58.6332L27.8353 57.3184C27.749 57.5224 27.6506 57.7208 27.5414 57.9112C26.9522 58.9422 26.0398 59.7662 24.9419 60.2456C24.7557 60.3269 24.5653 60.3983 24.3691 60.4589C23.8469 60.6209 23.2919 60.7086 22.7169 60.7086C21.6618 60.7086 20.6752 60.414 19.8349 59.9031C19.3762 59.6242 18.9617 59.2817 18.6029 58.8865C18.4831 58.7545 18.3696 58.6175 18.2633 58.4749C18.2098 58.4035 18.1585 58.3307 18.1085 58.2565C17.983 58.0711 17.8703 57.8763 17.7676 57.6751C17.7069 57.556 17.6484 57.4354 17.5963 57.312C17.5614 57.2285 17.5279 57.1443 17.4965 57.0594C17.4344 56.8889 17.3802 56.7148 17.3345 56.5372C17.2204 56.0934 17.1598 55.6276 17.1598 55.1481C17.1598 54.2385 17.3802 53.3803 17.7683 52.6219C17.8039 52.552 17.841 52.4828 17.8803 52.4143C17.9652 52.2645 18.0565 52.1189 18.1549 51.9784C18.2855 51.7915 18.426 51.6124 18.5779 51.4426C18.5901 51.429 18.6015 51.4155 18.6136 51.4026C19.5717 50.3532 20.9271 49.6726 22.4408 49.5977C22.5329 49.5934 22.6263 49.5905 22.7198 49.5905C24.3027 49.6797 25.1231 50.2918 25.432 50.5957C25.4834 50.6464 25.5205 50.6878 25.5447 50.7177C25.5625 50.7399 25.574 50.7548 25.5775 50.762C25.5789 50.7641 25.5789 50.7655 25.5789 50.7655L19.2021 55.8972L21.3629 58.5826L27.9495 53.2904L30.641 51.123C30.5133 50.8604 30.3735 50.6057 30.2223 50.3596C30.1845 50.2982 30.1459 50.2369 30.1067 50.1763C29.7921 49.6911 29.4311 49.2402 29.0288 48.8286C28.8776 48.6745 28.7206 48.5254 28.5587 48.3827C26.9993 47.0051 24.9576 46.1661 22.7212 46.1654C21.1247 46.1654 19.6266 46.5891 18.334 47.3318V47.3332Z" fill="white"/>
<path d="M39.4875 63.2712C39.6345 63.2898 39.7828 63.3048 39.9319 63.3162C40.0068 63.3219 40.081 63.3269 40.1566 63.3305C40.3072 63.3383 40.4577 63.3419 40.6103 63.3419C40.915 63.3419 41.216 63.3262 41.512 63.2962C41.6604 63.2812 41.8074 63.2627 41.9536 63.2398C42.3353 63.1813 42.7091 63.0986 43.0729 62.993C44.5182 62.5735 45.8108 61.7944 46.8459 60.7585C47.0043 60.5994 47.1569 60.4346 47.3032 60.2641C47.3752 60.18 47.4466 60.0943 47.5158 60.0073C47.6813 59.7997 47.8368 59.5835 47.983 59.3616C48.0173 59.3096 48.0508 59.2575 48.0836 59.2047C48.1935 59.0299 48.2969 58.8508 48.3946 58.6682C48.5451 58.3857 48.6814 58.0932 48.8013 57.7935C48.8162 57.7557 48.8312 57.7172 48.8455 57.6794C49.2207 56.6998 49.4276 55.6368 49.4276 54.5253C49.4276 53.8411 49.3498 53.1748 49.2022 52.5348C49.1858 52.4635 49.1686 52.3929 49.1501 52.323C49.1137 52.1824 49.0745 52.0426 49.0317 51.9049C48.9461 51.6288 48.8469 51.3584 48.7356 51.0951C48.68 50.9632 48.6208 50.8333 48.5594 50.7049C48.4974 50.5765 48.4324 50.4495 48.3647 50.3246C46.873 47.5758 43.9625 45.708 40.6118 45.7073C35.7388 45.7073 31.7952 49.6569 31.7945 54.5232C31.7938 59.0163 35.1509 62.719 39.4875 63.2712ZM42.9723 49.6155C44.7978 50.4959 46.0576 52.3643 46.0569 54.5253C46.0569 57.5324 43.6165 59.9723 40.6103 59.9716C39.6751 59.9716 38.7955 59.7348 38.0265 59.3188C38.0023 59.306 37.9787 59.2917 37.9552 59.2789C37.856 59.2232 37.759 59.164 37.6634 59.1027C37.5871 59.0534 37.5122 59.0028 37.4387 58.95C37.3909 58.9158 37.3431 58.8801 37.296 58.8444C36.3658 58.1296 35.6731 57.1215 35.3564 55.9579C35.2315 55.5006 35.1638 55.0204 35.1638 54.5239C35.1638 54.4326 35.1659 54.3412 35.1709 54.2506C35.1709 54.2414 35.1723 54.2321 35.173 54.2221C35.1909 53.8932 35.2394 53.5722 35.3129 53.2618C35.33 53.1905 35.3485 53.1191 35.3685 53.0485C35.3942 52.9579 35.422 52.868 35.452 52.7796C35.4891 52.6704 35.529 52.5627 35.5725 52.4564C35.5825 52.4314 35.5925 52.4064 35.6032 52.3815C36.4364 50.4388 38.3661 49.0776 40.6118 49.0776C41.2695 49.0776 41.9001 49.1946 42.4837 49.4086C42.6506 49.47 42.8132 49.5392 42.9723 49.6155Z" fill="white"/>
<path d="M65.0714 63.0372C68.3365 63.0379 70.9795 60.0386 70.9802 56.3402C70.9802 53.7184 69.6527 51.4518 67.723 50.3474C69.214 49.4941 70.3411 47.9474 70.7769 46.0825C70.9053 45.5339 70.9745 44.9574 70.9745 44.3632C70.9745 43.034 70.6336 41.7948 70.045 40.7532C69.9423 40.572 69.8324 40.3965 69.7162 40.2281C69.6705 40.1618 69.6227 40.0969 69.5749 40.0326C69.5314 39.9741 69.4872 39.9164 69.4415 39.86C69.4094 39.82 69.3773 39.7808 69.3452 39.7423C69.2147 39.5875 69.0777 39.4391 68.935 39.2985C68.9336 39.2971 68.9322 39.2957 68.9307 39.2942C68.5198 38.8912 68.0597 38.5523 67.5618 38.289C66.8042 37.8888 65.9595 37.6648 65.0686 37.6641L53.9022 37.6626L53.8993 63.0372H65.0714ZM57.3685 51.5973H63.7239C64.4173 51.598 65.0664 51.8042 65.6257 52.1617C66.7585 52.8865 67.5204 54.2377 67.5204 55.7873C67.5204 57.7171 66.3376 59.3395 64.7283 59.8253C64.408 59.9223 64.0713 59.9744 63.7231 59.9744H57.3685L57.3692 51.598L57.3685 51.5973ZM63.7253 40.4743C63.8565 40.4743 63.9857 40.4814 64.1133 40.4957C64.943 40.5884 65.6935 40.9758 66.2777 41.5615C66.2799 41.5637 66.282 41.5658 66.2841 41.5687C66.7985 42.0866 67.1816 42.7587 67.3763 43.5192C67.3941 43.5898 67.4113 43.6611 67.4255 43.7339C67.4355 43.7839 67.4455 43.8345 67.4541 43.8852C67.4712 43.9843 67.4847 44.0849 67.4954 44.1862C67.5118 44.3425 67.5204 44.5016 67.5204 44.6628C67.5204 46.9765 65.8212 48.8506 63.7231 48.8506H57.367L57.3685 40.4735H63.7239L63.7253 40.4743Z" fill="white"/>
<path d="M110.356 63.4631V52.3179C110.357 51.8142 110.462 51.3369 110.647 50.911C110.709 50.769 110.78 50.6328 110.859 50.5029C111.386 49.6383 112.279 49.0675 113.288 49.0675C114.903 49.0675 116.217 50.5293 116.217 52.3193L116.216 63.4645H119.781L119.783 52.3193C119.783 51.8563 119.871 51.4161 120.029 51.0166C120.062 50.9331 120.098 50.8518 120.136 50.7719C120.161 50.7212 120.188 50.6713 120.215 50.6228C120.731 49.6918 121.657 49.0682 122.712 49.0682C124.009 49.0682 125.112 50.0121 125.496 51.3105C125.59 51.6287 125.641 51.9683 125.641 52.3207L125.64 63.4659H129.205L129.206 52.3207C129.235 48.6223 126.313 45.6145 122.734 45.6145C122.426 45.6145 122.123 45.6373 121.826 45.6801C120.39 45.8885 119.106 46.5848 118.127 47.5993C118.089 47.6385 118.051 47.6785 118.014 47.7191C117.903 47.5978 117.787 47.4808 117.667 47.3681C117.548 47.2554 117.424 47.1477 117.296 47.0442C117.254 47.01 117.211 46.9757 117.168 46.9429C117.082 46.8759 116.993 46.8116 116.903 46.7496C116.724 46.6247 116.538 46.5092 116.346 46.4036C115.437 45.9006 114.399 45.6145 113.294 45.6145C112.204 45.6145 111.176 45.8927 110.273 46.3829C110.221 46.4114 110.17 46.4399 110.119 46.4699C109.949 46.5684 109.785 46.674 109.625 46.7867C109.561 46.8316 109.499 46.8773 109.438 46.9237C109.321 47.0128 109.208 47.1056 109.097 47.2019C108.959 47.3225 108.827 47.448 108.699 47.5793C108.662 47.6171 108.625 47.6556 108.59 47.6942C107.477 48.8977 106.793 50.5265 106.792 52.3186L106.791 63.4638L110.356 63.4631Z" fill="white"/>
<path d="M203.969 70.1037L204 70.0901L173.175 58.7095L171.225 61.7159L188.794 68.2003L154.22 68.1945L154.096 54.4346C154.096 54.364 154.097 54.2934 154.1 54.2235C154.113 53.8932 154.158 53.5721 154.228 53.2596C154.255 53.1419 154.285 53.0256 154.319 52.91C154.328 52.8772 154.337 52.8451 154.347 52.8123C154.379 52.716 154.413 52.6211 154.449 52.5269C155.04 50.9995 156.318 49.7973 157.92 49.2737C157.991 49.2509 158.062 49.2287 158.134 49.2081C158.638 49.0647 159.172 48.9876 159.724 48.9883C159.835 48.9883 159.944 48.9919 160.053 48.9983C160.22 49.0076 160.385 49.024 160.547 49.0468C160.652 49.0618 160.756 49.0789 160.86 49.0989C163.427 49.6076 165.36 51.8049 165.359 54.4361C165.359 55.0803 165.242 55.6974 165.029 56.271C165.008 56.3295 164.984 56.3873 164.961 56.4444C164.941 56.4922 164.922 56.5407 164.9 56.5885C164.804 56.8032 164.694 57.0115 164.571 57.2113C164.561 57.2277 164.552 57.2448 164.541 57.2612C163.553 58.8329 161.764 59.8831 159.723 59.8831C158.533 59.8831 157.591 59.6598 156.793 59.2289C156.741 59.2011 156.691 59.1725 156.64 59.1433C156.594 59.1169 156.55 59.0891 156.505 59.0612C155.962 58.7195 155.485 58.2736 155.038 57.7293V61.9949C155.732 62.3708 156.331 62.6605 156.952 62.8667C157.041 62.8959 157.13 62.9237 157.22 62.9501C157.31 62.9765 157.401 63.0008 157.493 63.0236C157.632 63.0579 157.772 63.0885 157.917 63.1149C158.21 63.1692 158.518 63.2077 158.852 63.2319C158.955 63.2391 159.061 63.2455 159.17 63.2498C159.175 63.2498 159.18 63.2498 159.185 63.2498C159.296 63.2541 159.411 63.2576 159.529 63.259C159.532 63.259 159.535 63.259 159.539 63.259C159.599 63.2598 159.66 63.2605 159.722 63.2605C164.763 63.2605 168.847 59.3109 168.847 54.4446C168.847 53.1105 168.541 51.847 167.993 50.7141C167.929 50.5828 167.863 50.4537 167.793 50.326C167.763 50.2711 167.732 50.2161 167.701 50.1619C167.658 50.0877 167.615 50.0149 167.57 49.9422C167.535 49.8851 167.499 49.828 167.463 49.7724C165.851 47.2825 162.988 45.6274 159.723 45.6274C156.094 45.6266 152.962 47.6756 151.495 50.6421C151.494 50.6442 151.493 50.6463 151.492 50.6485C151.44 50.7555 151.39 50.8632 151.341 50.9724C151.336 50.9838 151.331 50.9952 151.326 51.0066C151.226 51.2342 151.137 51.4668 151.056 51.7043C151.034 51.77 151.012 51.8356 150.992 51.902C150.955 52.0211 150.92 52.1417 150.889 52.2637C150.84 52.4499 150.797 52.6382 150.761 52.8294L150.599 54.451L150.597 68.2117L94.281 68.2038L94.2753 55.7652L96.2891 55.7445C99.3438 55.7445 101.833 58.8921 101.833 61.9478C101.833 61.9478 101.797 63.1848 101.832 63.1856H102.265C102.333 63.1856 102.407 63.1856 102.485 63.1856H102.607C102.689 63.1856 102.777 63.1856 102.866 63.1856C103.736 63.1856 104.839 63.1856 104.839 63.1856V61.9478C104.839 60.4167 104.422 58.8715 103.702 57.5167C103.602 57.3283 103.496 57.1442 103.385 56.9645C102.977 56.3031 102.494 55.6995 101.951 55.1787C101.709 54.9469 101.456 54.7307 101.191 54.5338C100.965 54.3662 100.732 54.2121 100.492 54.0736C100.647 53.9809 100.798 53.8839 100.946 53.7826C101.093 53.682 101.236 53.5771 101.375 53.4687C101.444 53.4144 101.512 53.3595 101.579 53.3031C103.391 51.7878 104.401 49.5955 104.401 46.97V45.7329C104.401 45.7329 101.43 45.7329 101.395 45.7322C101.393 45.7322 101.391 45.7372 101.39 45.7458C101.39 45.7479 101.39 45.7508 101.389 45.7529C101.388 45.7579 101.388 45.7636 101.387 45.7708C101.385 45.7893 101.384 45.8129 101.383 45.8421C101.38 45.9013 101.38 45.9805 101.38 46.0704C101.38 46.1232 101.38 46.1788 101.38 46.2359C101.38 46.2737 101.381 46.3115 101.382 46.3501C101.382 46.3893 101.383 46.4278 101.383 46.4664C101.388 46.7325 101.395 46.97 101.395 46.97C101.395 47.7341 101.259 48.4782 101.008 49.1645C100.255 51.2242 98.4635 52.7659 96.1714 52.7659L94.291 52.7445L94.296 14.7494L100.949 32.7899L103.956 30.8401L92.571 0L92.5611 0.0263969L92.5504 0.0556475L92.529 0L81.15 30.8273L84.1561 32.7785L90.7862 14.8236L90.7791 68.1874L0 68.1261L90.7762 88.5273H94.3231L94.2739 71.6896L189.638 71.7025L171.215 78.5036L173.165 81.5107L203.993 70.1379L203.939 70.1187H203.937L203.969 70.1037ZM90.7769 84.9473L28.5961 71.6825L90.7784 71.6903L90.7769 84.9473Z" fill="white"/>
<path d="M137.998 64.4005C138.61 64.5347 139.244 64.606 139.895 64.606C144.768 64.6074 148.713 60.6572 148.713 55.7902C148.715 53.9652 148.162 52.2694 147.212 50.8618C147.094 50.6856 146.968 50.5143 146.838 50.3481C146.794 50.2925 146.75 50.2375 146.705 50.1833C145.089 48.2235 142.64 46.9729 139.898 46.9722C137.781 46.9722 135.84 47.7177 134.32 48.9605C134.249 49.019 134.178 49.0782 134.109 49.1389C132.254 50.7555 131.081 53.1362 131.081 55.7887C131.081 60.0101 134.043 63.533 137.998 64.4005ZM135.183 53.062C135.218 53.0028 135.253 52.9436 135.29 52.8858C136.255 51.3583 137.958 50.3424 139.897 50.3424C140.071 50.3424 140.242 50.3517 140.412 50.3674C140.609 50.3859 140.804 50.4145 140.995 50.453C141.083 50.4708 141.171 50.4915 141.258 50.5136C141.41 50.5529 141.559 50.5992 141.705 50.6513C141.937 50.7334 142.162 50.8304 142.378 50.9417C142.522 51.0159 142.663 51.0958 142.799 51.1821C142.899 51.2456 142.998 51.312 143.093 51.3812C143.129 51.4068 143.164 51.4332 143.199 51.4596C144.501 52.4556 145.343 54.0244 145.343 55.7894C145.343 57.7328 144.326 59.4344 142.799 60.3975C141.958 60.9276 140.963 61.2358 139.896 61.2358C138.622 61.2358 137.451 60.7956 136.523 60.0622C136.434 59.9915 136.346 59.9188 136.261 59.8424C136.067 59.6676 135.885 59.4793 135.717 59.2788C135.161 58.6132 134.76 57.8134 134.572 56.9352C134.493 56.5657 134.45 56.1818 134.45 55.7887C134.45 54.9854 134.626 54.2235 134.938 53.5371C135.012 53.3745 135.094 53.2154 135.183 53.062Z" fill="white"/>
<path d="M72.7408 57.2284C72.9984 58.1345 73.3964 58.982 73.9108 59.744C73.9899 59.861 74.072 59.9766 74.1562 60.09C74.1983 60.1464 74.2411 60.2027 74.2853 60.2584C74.3659 60.3611 74.4487 60.461 74.5335 60.5601C74.5863 60.6222 74.6406 60.6836 74.6948 60.7435C74.7896 60.8476 74.8867 60.9504 74.9865 61.0496C75.0864 61.1494 75.1884 61.2465 75.2926 61.3413C75.4488 61.484 75.6107 61.6203 75.7769 61.7516C75.8882 61.8386 76.0009 61.9235 76.1165 62.0056C76.2314 62.0876 76.3491 62.1668 76.4682 62.2431C76.7065 62.3958 76.9533 62.5378 77.2065 62.6676C77.3335 62.7325 77.4619 62.7946 77.5918 62.8531C77.9171 63.0001 78.253 63.1285 78.5983 63.2362C79.4265 63.4938 80.3076 63.6329 81.2214 63.6329C83.7838 63.6329 86.0908 62.5392 87.7016 60.792C87.8414 60.64 87.9763 60.4831 88.1061 60.3219C88.171 60.2412 88.2338 60.1592 88.2959 60.0757C88.6668 59.577 88.9871 59.0384 89.2482 58.4669L86.3398 57.1528C86.0252 57.8998 85.5501 58.5633 84.958 59.1012C84.9088 59.1461 84.8588 59.1896 84.8075 59.2332C84.7055 59.3195 84.6006 59.4015 84.4929 59.48C84.3852 59.5585 84.2739 59.6334 84.1605 59.7047C84.067 59.7632 83.9714 59.8182 83.8737 59.871C83.823 59.8988 83.7717 59.9252 83.7203 59.9516C82.9684 60.3304 82.1195 60.5437 81.2214 60.5437C79.6869 60.5437 78.2973 59.9209 77.2914 58.915C77.1659 58.7894 77.046 58.6574 76.9326 58.5205C76.8763 58.452 76.8206 58.382 76.7678 58.3107C76.608 58.0967 76.4625 57.8705 76.3348 57.6344C76.292 57.5559 76.2513 57.476 76.2121 57.3947C76.0259 57.008 75.8847 56.597 75.7912 56.1668C75.7085 55.7859 75.6642 55.3906 75.6642 54.9847C75.6642 54.4411 75.7441 53.9167 75.8897 53.4209C75.9068 53.3631 75.9246 53.306 75.9432 53.2489C76.155 52.604 76.4818 52.0111 76.8998 51.4946C76.9961 51.3755 77.0981 51.2599 77.2044 51.1493C77.2657 51.0851 77.3285 51.0223 77.3934 50.961C78.3907 50.0114 79.7397 49.4271 81.2249 49.4271C82.1887 49.4813 82.8678 49.7274 83.3223 49.9814C83.3486 49.9964 83.3743 50.0107 83.3993 50.0257C83.4663 50.0656 83.5277 50.1048 83.5841 50.1434C83.9386 50.3874 84.087 50.5992 84.0841 50.6021L77.7073 55.7338L79.8674 58.4184L86.4547 53.1262L89.1462 50.9588C88.6354 49.9094 87.9299 48.9798 87.0624 48.2178C86.2478 47.498 85.3011 46.9251 84.2632 46.5427C84.2247 46.5284 84.1861 46.5149 84.1469 46.5006C84.0442 46.4642 83.94 46.4293 83.8352 46.3964C83.7082 46.3572 83.5798 46.3201 83.4507 46.2866C83.3857 46.2694 83.3208 46.2537 83.2559 46.2381C82.6039 46.0832 81.9233 46.0012 81.2242 46.0005C80.844 46.0005 80.4695 46.0247 80.1021 46.0711C79.9658 46.0882 79.8303 46.1089 79.6955 46.1325C79.6734 46.136 79.652 46.1403 79.6299 46.1439C79.2803 46.2074 78.9379 46.2916 78.604 46.3957C78.4663 46.4385 78.3294 46.4849 78.1945 46.5341C77.9242 46.6326 77.6609 46.7446 77.4034 46.868C77.1466 46.9914 76.8962 47.1277 76.6544 47.2747C74.3987 48.6445 72.8058 50.9988 72.4726 53.7433C72.4298 54.095 72.407 54.4532 72.407 54.8163C72.407 55.6525 72.5233 56.4615 72.7408 57.2284Z" fill="white"/>
</svg>
