<svg width="116" height="48" viewBox="0 0 116 48" fill="none" xmlns="http://www.w3.org/2000/svg">
<path d="M4.80747 34.3456L4.8843 22.2291L11.7881 22.2299L11.7885 20.4137L2.69302 20.413L2.69141 34.3453L4.80747 34.3456Z" fill="white"/>
<path d="M10.3914 25.6641C10.3566 25.6835 10.3219 25.7028 10.2875 25.7229C10.1844 25.7829 10.0837 25.8459 9.98583 25.9128C9.95308 25.9349 9.92073 25.9577 9.88878 25.9805C9.82449 26.0266 9.76181 26.0738 9.69994 26.1225C9.60734 26.1956 9.51757 26.2718 9.43063 26.3507C9.37281 26.4033 9.31619 26.4575 9.2612 26.5128C9.1783 26.596 9.09864 26.6815 9.02222 26.7701C8.93528 26.8706 8.85319 26.9751 8.77474 27.0822C8.74725 27.1197 8.72056 27.1576 8.69427 27.1959C8.47632 27.5143 8.29678 27.8594 8.16212 28.2249C8.14878 28.2613 8.13584 28.298 8.1233 28.3348C8.02585 28.6222 7.95589 28.9216 7.91667 29.2303C7.90899 29.2914 7.90252 29.3525 7.89726 29.4144C7.88594 29.5455 7.87987 29.6782 7.87987 29.812C7.87987 30.6364 8.09823 31.4127 8.48238 32.0901C8.5208 32.1578 8.56083 32.2247 8.60248 32.2904C8.64413 32.3562 8.6874 32.4208 8.73228 32.4842C8.80386 32.586 8.87988 32.6846 8.95914 32.7802C9.82449 33.8242 11.1359 34.5147 12.6191 34.5866C12.7044 34.5909 12.7901 34.5928 12.8763 34.5928C12.9393 34.5928 13.0024 34.5917 13.0651 34.5893C14.6114 34.5344 15.977 33.8068 16.8549 32.7032C16.8791 32.6726 16.9034 32.6413 16.9268 32.61C16.9903 32.5264 17.051 32.4405 17.1084 32.3527C17.1496 32.29 17.1893 32.2262 17.2277 32.1612C17.2572 32.1113 17.2859 32.0607 17.3138 32.0096C17.353 31.9377 17.3906 31.8653 17.4258 31.791L15.7772 31.0781C15.7283 31.1888 15.6725 31.2963 15.6106 31.3996C15.2766 31.9585 14.7594 32.4053 14.1371 32.6653C14.0315 32.7094 13.9236 32.7481 13.8124 32.7809C13.5164 32.8687 13.2018 32.9163 12.8759 32.9163C12.2778 32.9163 11.7186 32.7566 11.2422 32.4796C10.9822 32.3283 10.7473 32.1427 10.5439 31.9284C10.4759 31.8568 10.4116 31.7825 10.3514 31.7052C10.3211 31.6665 10.2919 31.627 10.2636 31.5868C10.1925 31.4862 10.1286 31.3806 10.0703 31.2715C10.036 31.2069 10.0028 31.1416 9.9733 31.0746C9.95348 31.0294 9.93448 30.9837 9.91668 30.9377C9.8815 30.8453 9.85077 30.7509 9.82489 30.6546C9.76019 30.4139 9.72582 30.1613 9.72582 29.9014C9.72582 29.4082 9.85077 28.9429 10.0707 28.5317C10.091 28.4937 10.112 28.4562 10.1342 28.4191C10.1824 28.3379 10.2341 28.2589 10.2899 28.1827C10.3639 28.0814 10.4436 27.9843 10.5297 27.8922C10.5366 27.8849 10.5431 27.8775 10.5499 27.8706C11.093 27.3015 11.8613 26.9325 12.7194 26.8919C12.7715 26.8896 12.8245 26.888 12.8775 26.888C13.7748 26.9364 14.2398 27.2683 14.4149 27.4331C14.444 27.4605 14.465 27.483 14.4788 27.4992C14.4889 27.5112 14.4954 27.5193 14.4974 27.5232C14.4982 27.5244 14.4982 27.5251 14.4982 27.5251L10.8835 30.3076L12.1084 31.7636L15.8419 28.8941L17.3676 27.7189C17.2952 27.5766 17.216 27.4385 17.1302 27.305C17.1088 27.2718 17.087 27.2385 17.0647 27.2056C16.8864 26.9426 16.6818 26.6981 16.4537 26.4749C16.368 26.3913 16.279 26.3105 16.1872 26.2331C15.3033 25.4862 14.146 25.0313 12.8783 25.0309C11.9733 25.0309 11.1241 25.2607 10.3914 25.6633V25.6641Z" fill="white"/>
<path d="M22.3822 34.3058C22.4655 34.3159 22.5496 34.324 22.6341 34.3302C22.6766 34.3333 22.7186 34.336 22.7615 34.3379C22.8468 34.3422 22.9321 34.3441 23.0187 34.3441C23.1913 34.3441 23.362 34.3356 23.5298 34.3193C23.6139 34.3112 23.6972 34.3012 23.7801 34.2888C23.9964 34.2571 24.2083 34.2122 24.4145 34.1549C25.2338 33.9275 25.9665 33.5051 26.5533 32.9434C26.643 32.8571 26.7296 32.7678 26.8125 32.6753C26.8533 32.6297 26.8937 32.5833 26.933 32.5361C27.0268 32.4235 27.1149 32.3063 27.1978 32.186C27.2172 32.1578 27.2362 32.1295 27.2548 32.1009C27.3171 32.0061 27.3757 31.909 27.4311 31.81C27.5165 31.6568 27.5937 31.4982 27.6616 31.3358C27.6701 31.3152 27.6786 31.2944 27.6867 31.2739C27.8994 30.7427 28.0167 30.1664 28.0167 29.5637C28.0167 29.1927 27.9726 28.8314 27.8889 28.4845C27.8796 28.4458 27.8699 28.4075 27.8594 28.3696C27.8388 28.2934 27.8165 28.2176 27.7922 28.1429C27.7437 27.9932 27.6875 27.8466 27.6244 27.7038C27.5929 27.6323 27.5593 27.5619 27.5246 27.4923C27.4894 27.4226 27.4526 27.3538 27.4142 27.2861C26.5686 25.7956 24.9188 24.7829 23.0195 24.7825C20.2572 24.7825 18.0219 26.924 18.0215 29.5625C18.0211 31.9988 19.924 34.0064 22.3822 34.3058ZM24.3575 26.9016C25.3923 27.3789 26.1064 28.392 26.106 29.5637C26.106 31.1942 24.7227 32.5171 23.0187 32.5167C22.4885 32.5167 21.99 32.3883 21.554 32.1628C21.5403 32.1558 21.5269 32.1481 21.5136 32.1411C21.4574 32.1109 21.4024 32.0788 21.3482 32.0456C21.3049 32.0189 21.2625 31.9914 21.2208 31.9628C21.1937 31.9442 21.1667 31.9249 21.14 31.9055C20.6127 31.5179 20.22 30.9714 20.0405 30.3404C19.9697 30.0925 19.9313 29.8322 19.9313 29.5629C19.9313 29.5134 19.9325 29.4639 19.9353 29.4148C19.9353 29.4097 19.9362 29.4047 19.9366 29.3993C19.9467 29.221 19.9742 29.0469 20.0158 28.8786C20.0255 28.84 20.036 28.8013 20.0474 28.763C20.0619 28.7138 20.0777 28.6651 20.0947 28.6171C20.1157 28.558 20.1383 28.4995 20.163 28.4419C20.1687 28.4284 20.1743 28.4148 20.1804 28.4013C20.6527 27.348 21.7465 26.6099 23.0195 26.6099C23.3923 26.6099 23.7498 26.6733 24.0805 26.7894C24.1752 26.8227 24.2674 26.8602 24.3575 26.9016Z" fill="white"/>
<path d="M36.8854 34.1791C38.7362 34.1795 40.2344 32.5533 40.2348 30.548C40.2348 29.1264 39.4823 27.8975 38.3884 27.2987C39.2336 26.836 39.8725 25.9974 40.1195 24.9862C40.1923 24.6887 40.2316 24.3762 40.2316 24.054C40.2316 23.3333 40.0383 22.6614 39.7047 22.0966C39.6464 21.9984 39.5842 21.9032 39.5182 21.8119C39.4924 21.7759 39.4653 21.7407 39.4382 21.7059C39.4135 21.6742 39.3884 21.6429 39.3626 21.6123C39.3444 21.5907 39.3262 21.5694 39.308 21.5485C39.234 21.4646 39.1563 21.3841 39.0755 21.3079C39.0747 21.3071 39.0738 21.3063 39.073 21.3056C38.8401 21.087 38.5793 20.9033 38.2971 20.7605C37.8676 20.5435 37.3888 20.4221 36.8838 20.4217L30.5542 20.4209L30.5526 34.1791H36.8854ZM32.519 27.9764H36.1215C36.5146 27.9768 36.8826 28.0886 37.1996 28.2824C37.8417 28.6754 38.2736 29.408 38.2736 30.2482C38.2736 31.2946 37.6032 32.1742 36.6909 32.4376C36.5093 32.4902 36.3185 32.5185 36.1211 32.5185H32.519L32.5194 27.9768L32.519 27.9764ZM36.1224 21.9454C36.1968 21.9454 36.2699 21.9492 36.3423 21.957C36.8126 22.0073 37.238 22.2173 37.5692 22.5349C37.5704 22.5361 37.5716 22.5372 37.5728 22.5388C37.8644 22.8196 38.0815 23.184 38.1919 23.5963C38.202 23.6346 38.2117 23.6733 38.2198 23.7128C38.2255 23.7399 38.2311 23.7673 38.236 23.7948C38.2457 23.8486 38.2534 23.9031 38.2594 23.958C38.2687 24.0427 38.2736 24.129 38.2736 24.2164C38.2736 25.4709 37.3104 26.4871 36.1211 26.4871H32.5182L32.519 21.945H36.1215L36.1224 21.9454Z" fill="white"/>
<path d="M62.5548 34.41V28.3671C62.5556 28.094 62.6146 27.8352 62.7198 27.6042C62.7549 27.5273 62.795 27.4534 62.8399 27.383C63.1387 26.9141 63.6446 26.6047 64.2167 26.6047C65.1322 26.6047 65.8771 27.3973 65.8771 28.3678L65.8763 34.4108H67.8973L67.8981 28.3678C67.8981 28.1168 67.9483 27.8781 68.038 27.6615C68.0566 27.6162 68.0769 27.5721 68.0987 27.5288C68.1128 27.5013 68.1278 27.4743 68.1432 27.448C68.4355 26.9432 68.9608 26.6051 69.5589 26.6051C70.294 26.6051 70.9192 27.1168 71.1367 27.8209C71.1901 27.9934 71.2192 28.1775 71.2192 28.3686L71.2184 34.4116H73.2394L73.2398 28.3686C73.2564 26.3633 71.6001 24.7325 69.571 24.7325C69.3963 24.7325 69.2249 24.7448 69.0566 24.768C68.2422 24.881 67.5144 25.2585 66.9596 25.8086C66.9381 25.8299 66.9167 25.8515 66.8957 25.8736C66.8326 25.8078 66.7671 25.7444 66.6992 25.6833C66.6312 25.6222 66.5613 25.5637 66.4889 25.5077C66.4646 25.4891 66.4404 25.4705 66.4161 25.4527C66.3672 25.4164 66.317 25.3815 66.2661 25.3479C66.1642 25.2802 66.0591 25.2175 65.9503 25.1603C65.4347 24.8876 64.8467 24.7325 64.2204 24.7325C63.6025 24.7325 63.0198 24.8833 62.5079 25.1491C62.4784 25.1645 62.4492 25.18 62.4201 25.1963C62.3243 25.2496 62.2309 25.3069 62.1403 25.368C62.1043 25.3924 62.0691 25.4171 62.0344 25.4423C61.968 25.4906 61.9037 25.5409 61.8411 25.5931C61.763 25.6585 61.6878 25.7266 61.6154 25.7978C61.5944 25.8183 61.5738 25.8392 61.5536 25.86C60.9227 26.5126 60.535 27.3957 60.5345 28.3675L60.5337 34.4104L62.5548 34.41Z" fill="white"/>
<path d="M115.619 38.0106L115.636 38.0033L98.1636 31.8326L97.058 33.4627L107.017 36.9786L87.4186 36.9755L87.3483 29.5148C87.3483 29.4765 87.3491 29.4382 87.3507 29.4003C87.358 29.2212 87.3835 29.0471 87.4235 28.8777C87.4385 28.8139 87.4558 28.7508 87.4749 28.6881C87.4801 28.6703 87.4854 28.6529 87.491 28.6351C87.5088 28.5829 87.5282 28.5315 87.5489 28.4804C87.8837 27.6522 88.6083 27.0004 89.5161 26.7165C89.5561 26.7041 89.5966 26.6921 89.6374 26.6809C89.9233 26.6031 90.2258 26.5614 90.5388 26.5618C90.6014 26.5618 90.6637 26.5637 90.7252 26.5672C90.8198 26.5722 90.9132 26.5811 91.0054 26.5935C91.0648 26.6016 91.1239 26.6109 91.1825 26.6217C92.6378 26.8975 93.7333 28.0889 93.7329 29.5156C93.7329 29.8649 93.6666 30.1995 93.5461 30.5105C93.5339 30.5422 93.5206 30.5735 93.5072 30.6045C93.4959 30.6304 93.485 30.6567 93.4729 30.6826C93.4183 30.799 93.356 30.912 93.2865 31.0203C93.2808 31.0292 93.2755 31.0385 93.2695 31.0474C92.709 31.8996 91.6953 32.469 90.5384 32.469C89.8639 32.469 89.3297 32.3479 88.8772 32.1142C88.8481 32.0992 88.8194 32.0837 88.7907 32.0678C88.7648 32.0535 88.7393 32.0384 88.7142 32.0233C88.4065 31.838 88.136 31.5963 87.8825 31.3011V33.614C88.2759 33.8178 88.6152 33.9749 88.9674 34.0867C89.0179 34.1025 89.0685 34.1176 89.1194 34.1319C89.1704 34.1462 89.2221 34.1594 89.2743 34.1718C89.3527 34.1903 89.4324 34.207 89.5145 34.2213C89.6803 34.2507 89.855 34.2716 90.0442 34.2847C90.1029 34.2886 90.1631 34.2921 90.225 34.2944C90.2278 34.2944 90.2302 34.2944 90.2331 34.2944C90.2961 34.2967 90.3612 34.2986 90.428 34.2994C90.43 34.2994 90.4316 34.2994 90.4336 34.2994C90.468 34.2998 90.5024 34.3002 90.5375 34.3002C93.3948 34.3002 95.7098 32.1587 95.7098 29.5202C95.7098 28.7968 95.5364 28.1118 95.2258 27.4975C95.1898 27.4263 95.1522 27.3563 95.1126 27.287C95.0956 27.2573 95.0782 27.2275 95.0604 27.1981C95.0362 27.1579 95.0115 27.1184 94.9864 27.0789C94.9666 27.048 94.946 27.017 94.9254 26.9869C94.0119 25.6369 92.3892 24.7394 90.5384 24.7394C88.4809 24.739 86.7057 25.85 85.8744 27.4584C85.8736 27.4596 85.8731 27.4607 85.8727 27.4619C85.8428 27.5199 85.8145 27.5783 85.787 27.6375C85.7842 27.6437 85.7814 27.6499 85.7785 27.6561C85.7219 27.7795 85.671 27.9056 85.6253 28.0344C85.6127 28.07 85.6006 28.1056 85.5893 28.1415C85.5683 28.2061 85.5484 28.2715 85.5306 28.3377C85.5027 28.4386 85.4785 28.5408 85.4579 28.6444L85.3665 29.5237L85.3653 36.9848L53.4427 36.9805L53.4395 30.2362L54.581 30.225C56.3125 30.225 57.7234 31.9317 57.7234 33.5884C57.7234 33.5884 57.7031 34.2592 57.723 34.2596H57.9684C58.0068 34.2596 58.0489 34.2596 58.0934 34.2596H58.1621C58.209 34.2596 58.2583 34.2596 58.3089 34.2596C58.8022 34.2596 59.4274 34.2596 59.4274 34.2596V33.5884C59.4274 32.7583 59.1912 31.9204 58.7828 31.1859C58.7262 31.0837 58.6664 30.9839 58.6033 30.8865C58.372 30.5279 58.0982 30.2006 57.7905 29.9182C57.6534 29.7925 57.5099 29.6753 57.3598 29.5685C57.2316 29.4776 57.0994 29.3941 56.9631 29.319C57.0513 29.2688 57.137 29.2161 57.2207 29.1612C57.304 29.1067 57.3853 29.0498 57.4638 28.991C57.503 28.9616 57.5418 28.9318 57.5798 28.9013C58.6065 28.0797 59.1791 26.8909 59.1791 25.4674V24.7967C59.1791 24.7967 57.4949 24.7967 57.4755 24.7963C57.4743 24.7963 57.4731 24.799 57.4722 24.8036C57.4722 24.8048 57.4722 24.8063 57.4718 24.8075C57.4714 24.8102 57.471 24.8133 57.4706 24.8172C57.4698 24.8272 57.469 24.84 57.4682 24.8559C57.467 24.888 57.4666 24.9309 57.4666 24.9796C57.4666 25.0083 57.4666 25.0384 57.467 25.0694C57.467 25.0899 57.4674 25.1104 57.4678 25.1313C57.4678 25.1525 57.4686 25.1734 57.4686 25.1943C57.471 25.3386 57.4751 25.4674 57.4751 25.4674C57.4751 25.8817 57.3982 26.2852 57.2559 26.6573C56.8293 27.7741 55.8135 28.61 54.5143 28.61L53.4484 28.5984L53.4512 7.99723L57.2223 17.7789L58.9268 16.7217L52.4734 0L52.4678 0.0143125L52.4617 0.0301724L52.4496 0L45.9995 16.7147L47.7035 17.7727L51.4617 8.03746L51.4577 36.9716L0 36.9383L51.456 48H53.4666L53.4387 38.8705L107.496 38.8775L97.0524 42.5651L98.1579 44.1956L115.632 38.0292L115.602 38.0187H115.601L115.619 38.0106ZM51.4564 46.0589L16.2096 38.8667L51.4572 38.8709L51.4564 46.0589Z" fill="white"/>
<path d="M78.2237 34.9183C78.5702 34.9911 78.9297 35.0297 79.2989 35.0297C82.0612 35.0305 84.2969 32.8887 84.2969 30.2497C84.2985 29.2602 83.9848 28.3408 83.4465 27.5776C83.3794 27.482 83.3083 27.3892 83.2342 27.299C83.2096 27.2689 83.1845 27.2391 83.159 27.2097C82.2427 26.1471 80.8545 25.469 79.3005 25.4686C78.1004 25.4686 77.0001 25.8728 76.1388 26.5467C76.0983 26.5784 76.0583 26.6105 76.0191 26.6434C74.9673 27.5199 74.3025 28.8108 74.3025 30.249C74.3025 32.5378 75.9819 34.448 78.2237 34.9183ZM76.6281 28.7705C76.6475 28.7384 76.6677 28.7063 76.6883 28.675C77.2354 27.8468 78.2006 27.2959 79.3001 27.2959C79.3984 27.2959 79.4954 27.301 79.5917 27.3095C79.7037 27.3195 79.8141 27.335 79.9221 27.3559C79.9722 27.3656 80.0219 27.3768 80.0713 27.3888C80.1574 27.4101 80.2419 27.4352 80.3248 27.4634C80.4562 27.5079 80.5836 27.5605 80.7061 27.6209C80.7878 27.6611 80.8679 27.7044 80.9451 27.7512C81.0017 27.7857 81.0575 27.8216 81.1117 27.8592C81.1319 27.8731 81.1517 27.8874 81.1716 27.9017C81.9099 28.4417 82.3871 29.2924 82.3867 30.2494C82.3867 31.3031 81.8105 32.2256 80.9447 32.7479C80.4684 33.0353 79.9043 33.2024 79.2993 33.2024C78.5771 33.2024 77.9131 32.9637 77.3875 32.5661C77.3369 32.5278 77.2872 32.4883 77.2391 32.4469C77.1287 32.3521 77.0256 32.25 76.9305 32.1413C76.6151 31.7804 76.3883 31.3468 76.2815 30.8706C76.2366 30.6702 76.2124 30.4621 76.2124 30.249C76.2124 29.8134 76.3118 29.4003 76.489 29.0282C76.531 28.94 76.5775 28.8537 76.6281 28.7705Z" fill="white"/>
<path d="M41.2328 31.0296C41.3788 31.5209 41.6044 31.9804 41.8959 32.3935C41.9408 32.457 41.9873 32.5196 42.035 32.5811C42.0589 32.6117 42.0832 32.6423 42.1082 32.6724C42.1539 32.7281 42.2008 32.7823 42.249 32.8361C42.2789 32.8697 42.3096 32.903 42.3404 32.9355C42.3941 32.9919 42.4491 33.0477 42.5057 33.1014C42.5623 33.1556 42.6202 33.2082 42.6792 33.2596C42.7678 33.337 42.8596 33.4109 42.9538 33.4821C43.0169 33.5293 43.0807 33.5753 43.1463 33.6198C43.2114 33.6643 43.2781 33.7072 43.3456 33.7486C43.4807 33.8314 43.6206 33.9083 43.7641 33.9787C43.8361 34.0139 43.9089 34.0476 43.9825 34.0793C44.1669 34.159 44.3573 34.2286 44.5531 34.287C45.0225 34.4267 45.5219 34.5021 46.0399 34.5021C47.4924 34.5021 48.8002 33.9091 49.7132 32.9618C49.7925 32.8794 49.8689 32.7943 49.9425 32.7069C49.9793 32.6632 50.0149 32.6187 50.0501 32.5734C50.2603 32.303 50.4419 32.011 50.5899 31.7011L48.9413 30.9886C48.763 31.3936 48.4936 31.7533 48.158 32.045C48.1301 32.0694 48.1018 32.093 48.0727 32.1166C48.0149 32.1634 47.9554 32.2079 47.8944 32.2504C47.8333 32.293 47.7702 32.3336 47.7059 32.3723C47.653 32.404 47.5988 32.4338 47.5434 32.4624C47.5147 32.4775 47.4855 32.4918 47.4564 32.5061C47.0302 32.7115 46.549 32.8272 46.0399 32.8272C45.1701 32.8272 44.3824 32.4895 43.8122 31.944C43.7411 31.876 43.6732 31.8044 43.6089 31.7301C43.5769 31.693 43.5454 31.6551 43.5154 31.6164C43.4249 31.5004 43.3424 31.3777 43.27 31.2497C43.2457 31.2071 43.2227 31.1638 43.2004 31.1197C43.0949 30.9101 43.0148 30.6872 42.9619 30.454C42.915 30.2474 42.8899 30.0331 42.8899 29.813C42.8899 29.5183 42.9352 29.2339 43.0177 28.9651C43.0274 28.9338 43.0375 28.9028 43.048 28.8719C43.1681 28.5222 43.3533 28.2007 43.5903 27.9207C43.6448 27.8561 43.7027 27.7934 43.7629 27.7334C43.7977 27.6986 43.8333 27.6646 43.8701 27.6313C44.4354 27.1165 45.2 26.7996 46.0419 26.7996C46.5882 26.829 46.9732 26.9625 47.2308 27.1002C47.2458 27.1083 47.2603 27.1161 47.2745 27.1242C47.3125 27.1459 47.3473 27.1671 47.3792 27.188C47.5802 27.3203 47.6643 27.4352 47.6627 27.4368L44.048 30.2192L45.2724 31.6748L49.0064 28.8053L50.5321 27.6302C50.2425 27.0611 49.8426 26.5571 49.3509 26.144C48.8891 25.7537 48.3525 25.4431 47.7642 25.2357C47.7423 25.228 47.7205 25.2206 47.6982 25.2129C47.64 25.1932 47.581 25.1742 47.5215 25.1564C47.4496 25.1351 47.3768 25.115 47.3036 25.0968C47.2668 25.0876 47.23 25.0791 47.1932 25.0705C46.8236 24.9866 46.4378 24.9421 46.0415 24.9417C45.826 24.9417 45.6137 24.9549 45.4055 24.98C45.3282 24.9893 45.2514 25.0005 45.175 25.0133C45.1624 25.0152 45.1503 25.0175 45.1378 25.0195C44.9396 25.0539 44.7455 25.0996 44.5563 25.156C44.4782 25.1792 44.4006 25.2044 44.3242 25.2311C44.1709 25.2845 44.0217 25.3452 43.8757 25.4121C43.7302 25.479 43.5882 25.5529 43.4512 25.6326C42.1725 26.3753 41.2696 27.6518 41.0807 29.1399C41.0565 29.3306 41.0435 29.5248 41.0435 29.7217C41.0435 30.1751 41.1094 30.6137 41.2328 31.0296Z" fill="white"/>
</svg>
