<svg width="120" height="120" viewBox="0 0 120 120" fill="none" xmlns="http://www.w3.org/2000/svg">
<circle cx="60" cy="60" r="60" fill="#F3F3F3"/>
<path fill-rule="evenodd" clip-rule="evenodd" d="M39.5731 36.0714C40.1139 35.5307 40.9533 35.4273 41.6091 35.8208L50.3591 41.0708C50.8611 41.372 51.1683 41.9145 51.1683 42.5V45.0973L59.3992 53.3282C60.0708 52.2015 60.2836 50.5992 60.1306 48.7897C59.9494 46.6762 60.3238 44.5521 61.2168 42.628C62.1099 40.7036 63.4908 39.0462 65.2223 37.8202C66.9539 36.5942 68.9759 35.8424 71.0878 35.6392C73.1996 35.4361 75.3279 35.7887 77.2614 36.6621C77.7602 36.8874 78.1166 37.3432 78.2149 37.8817C78.3131 38.4201 78.1408 38.9724 77.7538 39.3595L70.824 46.2893C71.0914 46.9353 71.4842 47.5252 71.9826 48.0237C72.481 48.522 73.0709 48.9148 73.7168 49.1822L80.6466 42.2503C81.0336 41.8632 81.586 41.6908 82.1245 41.789C82.6629 41.8873 83.1189 42.2437 83.3442 42.7425C84.2176 44.676 84.5702 46.8043 84.367 48.9161C84.1639 51.028 83.412 53.05 82.1861 54.7816C80.9601 56.5131 79.3026 57.894 77.3782 58.7871C75.4546 59.6799 73.3311 60.0544 71.2181 59.8734C71.1331 59.8664 71.0482 59.8601 70.9634 59.8547L82.1801 71.0714L82.1991 71.0907C83.6327 72.5716 84.4267 74.5566 84.41 76.6177C84.3933 78.6787 83.5671 80.6506 82.1097 82.108C80.6523 83.5654 78.6804 84.3916 76.6193 84.4083C74.5583 84.425 72.5733 83.631 71.0924 82.1974L71.0731 82.1785L58.7679 69.8733L49.0752 81.644C49.0749 81.6443 49.0747 81.6446 49.0744 81.6449C48.4006 82.4661 47.5623 83.1371 46.6135 83.6149C45.6644 84.0928 44.6257 84.3667 43.5643 84.4189C42.503 84.4712 41.4424 84.3006 40.4509 83.9182C39.4595 83.5358 38.559 82.95 37.8076 82.1986C37.0562 81.4472 36.4705 80.5468 36.0881 79.5553C35.7057 78.5638 35.5351 77.5033 35.5873 76.4419C35.6396 75.3805 35.9135 74.3419 36.3914 73.3927C36.8691 72.4439 37.5403 71.6055 38.3615 70.9316C38.3617 70.9315 38.362 70.9313 38.3622 70.9311L52.8957 58.9633L45.0989 51.1666H42.5016C41.9162 51.1666 41.3737 50.8595 41.0725 50.3574L35.8225 41.6074C35.429 40.9517 35.5323 40.1122 36.0731 39.5714L39.5731 36.0714ZM56.5105 60.3005C56.485 60.3242 56.4588 60.3473 56.4317 60.3695L40.4764 73.5082C40.0146 73.887 39.6372 74.3584 39.3686 74.8919C39.0999 75.4254 38.946 76.0092 38.9166 76.6058C38.8873 77.2024 38.9831 77.7985 39.1981 78.3558C39.413 78.9131 39.7423 79.4192 40.1647 79.8416C40.587 80.264 41.0931 80.5932 41.6504 80.8082C42.2077 81.0231 42.8039 81.119 43.4005 81.0896C43.9971 81.0602 44.5809 80.9063 45.1144 80.6377C45.6479 80.369 46.1192 79.9917 46.4981 79.5299L63.187 59.2656C64.1537 58.0945 65.407 57.3824 66.7004 56.9771C66.7726 56.9499 66.8462 56.928 66.9209 56.9111C68.4395 56.4779 70.0528 56.4322 71.4954 56.5516L71.5005 56.5521C73.0353 56.6838 74.5777 56.412 75.9749 55.7636C77.3721 55.1151 78.5755 54.1126 79.4656 52.8554C80.3557 51.5983 80.9015 50.1302 81.049 48.597C81.1133 47.9285 81.1009 47.2578 81.014 46.5976L75.36 52.2533C74.9535 52.6599 74.366 52.8283 73.8058 52.6988C72.2228 52.3327 70.7744 51.5295 69.6256 50.3807C68.4767 49.2318 67.6735 47.7834 67.3075 46.2004C67.1779 45.6403 67.3463 45.053 67.7528 44.6464L73.4069 38.9923C72.7464 38.9053 72.0756 38.8929 71.407 38.9572C69.8737 39.1047 68.4056 39.6506 67.1485 40.5407C65.8913 41.4308 64.8888 42.6341 64.2403 44.0313C63.5919 45.4285 63.3201 46.971 63.4518 48.5057L63.452 48.5078C63.6752 51.1463 63.3515 54.6656 60.7453 56.815L60.5109 57.0103C60.4811 57.0351 60.4507 57.0588 60.4198 57.0811L56.5105 60.3005ZM56.965 55.608L48.3231 46.9661C48.0105 46.6536 47.835 46.2296 47.835 45.7876V43.4436L41.01 39.3486L39.3503 41.0083L43.4453 47.8333H45.7893C46.2313 47.8333 46.6552 48.0089 46.9678 48.3214L55.4785 56.8322L56.965 55.608ZM66.8846 60.49C66.437 60.7237 66.0601 61.0213 65.7576 61.3877L60.8969 67.2882L73.4199 79.8112C74.2713 80.6309 75.4101 81.0847 76.5923 81.0751C77.7787 81.0655 78.9137 80.5899 79.7526 79.751C80.5916 78.9121 81.0671 77.777 81.0768 76.5906C81.0864 75.4084 80.6325 74.2696 79.8128 73.4182L66.8846 60.49ZM67.5731 67.5714C68.224 66.9206 69.2793 66.9206 69.9301 67.5714L76.0551 73.6964C76.706 74.3473 76.706 75.4026 76.0551 76.0535C75.4043 76.7043 74.349 76.7043 73.6981 76.0535L67.5731 69.9285C66.9222 69.2776 66.9222 68.2223 67.5731 67.5714ZM41.6913 76.625C41.6913 75.7045 42.4375 74.9583 43.358 74.9583H43.3766C44.2971 74.9583 45.0433 75.7045 45.0433 76.625V76.6436C45.0433 77.5641 44.2971 78.3103 43.3766 78.3103H43.358C42.4375 78.3103 41.6913 77.5641 41.6913 76.6436V76.625Z" fill="#145FAD"/>
</svg>
