<svg width="120" height="120" viewBox="0 0 120 120" fill="none" xmlns="http://www.w3.org/2000/svg">
<circle cx="60" cy="60" r="60" fill="#F3F3F3"/>
<g clip-path="url(#clip0_207_151)">
<path d="M70.6 37.8217C70.4581 37.752 70.2925 37.7055 70.1505 37.6822C69.2753 37.473 68.3763 37.3335 67.4538 37.3335H53.2366C47.0387 37.3335 42 42.2853 42 48.3762V71.6241C42 77.715 47.0387 82.6668 53.2366 82.6668H67.4301C73.628 82.6668 78.6667 77.715 78.6667 71.6241V48.3762C78.6667 43.3779 75.2366 39.1933 70.6 37.8217ZM68.0215 40.8672V50.2128L65.8452 49.1434C65.3484 48.8877 64.757 48.8877 64.2602 49.1434L62.0839 50.2128V40.8207H67.4065C67.6194 40.8207 67.8086 40.8672 67.9979 40.8904L68.0215 40.8672ZM45.5484 71.6241V48.3762C45.5484 45.7027 46.9677 43.3779 49.0968 42.0296V77.9708C46.9677 76.6224 45.5484 74.2976 45.5484 71.6241ZM75.1183 71.6241C75.1183 75.7855 71.6645 79.1797 67.4301 79.1797H53.2366C53 79.1797 52.7634 79.1332 52.5505 79.1099C52.5978 78.9472 52.6452 78.7844 52.6452 78.5985V41.4019C52.6452 41.2159 52.5978 41.0532 52.5505 40.8904C52.7871 40.8904 53 40.8207 53.2366 40.8207H58.5591V53.0258C58.5591 53.6302 58.8667 54.1882 59.4108 54.5137C59.9312 54.8391 60.5935 54.8624 61.1376 54.5834L65.0882 52.6538L69.0387 54.5834C69.2989 54.6997 69.5591 54.7694 69.8194 54.7694C70.1505 54.7694 70.4581 54.6764 70.7419 54.5137C71.2624 54.1882 71.5935 53.6302 71.5935 53.0258V42.0296C73.7226 43.3779 75.1419 45.7027 75.1419 48.3762V71.6241H75.1183Z" fill="#145FAD"/>
</g>
<defs>
<clipPath id="clip0_207_151">
<rect width="36.6667" height="45.3333" fill="white" transform="translate(42 37.3335)"/>
</clipPath>
</defs>
</svg>
