<svg width="120" height="120" viewBox="0 0 120 120" fill="none" xmlns="http://www.w3.org/2000/svg">
<circle cx="60" cy="60" r="60" fill="#F3F3F3"/>
<g clip-path="url(#clip0_207_155)">
<path d="M78.4948 36.6665H41.0897C37.5538 36.6665 34.6641 39.4486 34.6641 42.8588V68.1665C34.6641 71.5768 37.5538 74.3588 41.0897 74.3588H65.1769V81.5383C65.1769 82.2562 65.6077 82.9203 66.2897 83.1896C66.9718 83.4588 67.7256 83.3152 68.2461 82.7947L70.5615 80.4793L72.8769 82.7947C73.2179 83.1357 73.6846 83.3152 74.1512 83.3152C74.3846 83.3152 74.6179 83.2793 74.8333 83.1716C75.4974 82.9024 75.9461 82.2383 75.9461 81.5204V74.3409H78.4948C82.0307 74.3409 84.9205 71.5588 84.9205 68.1486V42.8588C84.9205 39.4486 82.0307 36.6665 78.4948 36.6665ZM70.5615 67.1793C68.5871 67.1793 66.9718 65.5639 66.9718 63.5896C66.9718 61.6152 68.5871 59.9998 70.5615 59.9998C72.5359 59.9998 74.1512 61.6152 74.1512 63.5896C74.1512 65.5639 72.5359 67.1793 70.5615 67.1793ZM71.8359 76.6742C71.1359 75.9742 70.0051 75.9742 69.3051 76.6742L68.7846 77.1947V70.4998C69.3589 70.6434 69.9512 70.7511 70.5794 70.7511C71.2076 70.7511 71.8 70.6434 72.3743 70.4998V77.1947L71.8538 76.6742H71.8359ZM81.3307 68.1665C81.3307 69.6024 80.0564 70.7691 78.4948 70.7691H75.9461V68.9742C75.9461 68.7768 75.8923 68.5973 75.8384 68.4178C77.0051 67.1434 77.741 65.4562 77.741 63.5896C77.741 59.6229 74.5282 56.4101 70.5615 56.4101C66.5948 56.4101 63.382 59.6229 63.382 63.5896C63.382 65.4562 64.1179 67.1434 65.2846 68.4178C65.2307 68.5973 65.1769 68.7768 65.1769 68.9742V70.7691H41.0897C39.5282 70.7691 38.2538 69.6024 38.2538 68.1665V42.8588C38.2538 41.4229 39.5282 40.2562 41.0897 40.2562H78.4948C80.0564 40.2562 81.3307 41.4229 81.3307 42.8588V68.1665Z" fill="#145FAD"/>
<path d="M52.6074 47.4357H66.9663C67.9535 47.4357 68.7612 46.628 68.7612 45.6408C68.7612 44.6536 67.9535 43.8459 66.9663 43.8459H52.6074C51.6202 43.8459 50.8125 44.6536 50.8125 45.6408C50.8125 46.628 51.6202 47.4357 52.6074 47.4357Z" fill="#145FAD"/>
<path d="M74.1456 51.0256H45.4277C44.4405 51.0256 43.6328 51.8333 43.6328 52.8205C43.6328 53.8077 44.4405 54.6154 45.4277 54.6154H74.1456C75.1328 54.6154 75.9405 53.8077 75.9405 52.8205C75.9405 51.8333 75.1328 51.0256 74.1456 51.0256Z" fill="#145FAD"/>
<path d="M54.402 61.7949H45.4277C44.4405 61.7949 43.6328 62.6026 43.6328 63.5898C43.6328 64.577 44.4405 65.3847 45.4277 65.3847H54.402C55.3892 65.3847 56.1969 64.577 56.1969 63.5898C56.1969 62.6026 55.3892 61.7949 54.402 61.7949Z" fill="#145FAD"/>
</g>
<defs>
<clipPath id="clip0_207_155">
<rect width="50.2564" height="46.6667" fill="white" transform="translate(34.6641 36.6665)"/>
</clipPath>
</defs>
</svg>
