<svg width="26" height="26" viewBox="0 0 26 26" fill="none" xmlns="http://www.w3.org/2000/svg">
<path d="M14.9652 2.93963C17.0038 2.93963 18.4522 2.94177 19.5511 3.08929C20.6254 3.2336 21.2454 3.50511 21.6976 3.95729C22.2182 4.47787 22.4459 4.88194 22.5709 5.60135C22.712 6.4127 22.7152 7.56825 22.7152 9.62066C22.7152 9.83329 22.7997 10.0372 22.9501 10.1876C23.1004 10.3379 23.3043 10.4224 23.517 10.4224C23.7296 10.4224 23.9335 10.3379 24.0839 10.1876C24.2342 10.0372 24.3187 9.83329 24.3187 9.62066V9.51804C24.3187 7.59391 24.3187 6.29191 24.1498 5.32556C23.9627 4.25125 23.5629 3.55535 22.8318 2.82418C22.0311 2.02246 21.0167 1.66863 19.7638 1.49973C18.5452 1.33618 16.9899 1.33618 15.0251 1.33618H14.9652C14.7526 1.33618 14.5487 1.42065 14.3983 1.571C14.248 1.72135 14.1635 1.92528 14.1635 2.13791C14.1635 2.35054 14.248 2.55446 14.3983 2.70481C14.5487 2.85516 14.7526 2.93963 14.9652 2.93963ZM2.13766 15.2327C2.35029 15.2327 2.55421 15.3172 2.70457 15.4676C2.85492 15.6179 2.93939 15.8218 2.93939 16.0345C2.93939 18.0869 2.94259 19.2424 3.0837 20.0538C3.20983 20.7732 3.43645 21.1773 3.95704 21.6978C4.40921 22.15 5.02921 22.4215 6.10459 22.5658C7.20349 22.7134 8.65087 22.7155 10.6894 22.7155C10.902 22.7155 11.1059 22.8 11.2563 22.9503C11.4066 23.1007 11.4911 23.3046 11.4911 23.5172C11.4911 23.7298 11.4066 23.9338 11.2563 24.0841C11.1059 24.2345 10.902 24.3189 10.6894 24.3189H10.6295C8.66477 24.3189 7.10835 24.3189 5.8908 24.1554C4.63797 23.9865 3.62352 23.6316 2.82287 22.832C2.0917 22.0998 1.6919 21.4039 1.50483 20.3296C1.33594 19.3632 1.33594 18.0601 1.33594 16.1371V16.0345C1.33594 15.8218 1.4204 15.6179 1.57076 15.4676C1.72111 15.3172 1.92503 15.2327 2.13766 15.2327ZM23.517 15.2327C23.7296 15.2327 23.9335 15.3172 24.0839 15.4676C24.2342 15.6179 24.3187 15.8218 24.3187 16.0345V16.1371C24.3187 18.0612 24.3187 19.3632 24.1498 20.3296C23.9627 21.4039 23.5629 22.0998 22.8318 22.8309C22.0311 23.6327 21.0167 23.9865 19.7638 24.1554C18.5452 24.3189 16.9899 24.3189 15.0251 24.3189H14.9652C14.7526 24.3189 14.5487 24.2345 14.3983 24.0841C14.248 23.9338 14.1635 23.7298 14.1635 23.5172C14.1635 23.3046 14.248 23.1007 14.3983 22.9503C14.5487 22.8 14.7526 22.7155 14.9652 22.7155C17.0038 22.7155 18.4522 22.7134 19.5511 22.5658C20.6254 22.4215 21.2454 22.15 21.6976 21.6978C22.2182 21.1773 22.4459 20.7732 22.5709 20.0538C22.712 19.2424 22.7152 18.0869 22.7152 16.0345C22.7152 15.8218 22.7997 15.6179 22.9501 15.4676C23.1004 15.3172 23.3043 15.2327 23.517 15.2327ZM10.6295 1.33618H10.6894C10.902 1.33618 11.1059 1.42065 11.2563 1.571C11.4066 1.72135 11.4911 1.92528 11.4911 2.13791C11.4911 2.35054 11.4066 2.55446 11.2563 2.70481C11.1059 2.85516 10.902 2.93963 10.6894 2.93963C8.65087 2.93963 7.20349 2.94177 6.10352 3.08929C5.02921 3.2336 4.40921 3.50511 3.95704 3.95729C3.43645 4.47787 3.20877 4.88194 3.0837 5.60135C2.94259 6.4127 2.93939 7.56825 2.93939 9.62066C2.93939 9.83329 2.85492 10.0372 2.70457 10.1876C2.55421 10.3379 2.35029 10.4224 2.13766 10.4224C1.92503 10.4224 1.72111 10.3379 1.57076 10.1876C1.4204 10.0372 1.33594 9.83329 1.33594 9.62066V9.51804C1.33594 7.59391 1.33594 6.29191 1.50483 5.32556C1.6919 4.25125 2.0917 3.55535 2.82287 2.82418C3.62352 2.02246 4.63797 1.66863 5.8908 1.49973C7.10942 1.33618 8.66477 1.33618 10.6295 1.33618ZM12.8273 11.4914C12.4729 11.4914 12.1331 11.6321 11.8825 11.8827C11.6319 12.1333 11.4911 12.4732 11.4911 12.8276C11.4911 13.1819 11.6319 13.5218 11.8825 13.7724C12.1331 14.023 12.4729 14.1638 12.8273 14.1638C13.1817 14.1638 13.5216 14.023 13.7722 13.7724C14.0227 13.5218 14.1635 13.1819 14.1635 12.8276C14.1635 12.4732 14.0227 12.1333 13.7722 11.8827C13.5216 11.6321 13.1817 11.4914 12.8273 11.4914Z" fill="white"/>
<path fill-rule="evenodd" clip-rule="evenodd" d="M6.29727 15.0296C5.66123 14.292 5.34375 13.9232 5.34375 12.8275C5.34375 11.7318 5.66123 11.363 6.29727 10.6254C7.5672 9.15239 9.69658 7.48267 12.8265 7.48267C15.9554 7.48267 18.0858 9.15239 19.3558 10.6254C19.9918 11.363 20.3093 11.7318 20.3093 12.8275C20.3093 13.9232 19.9918 14.292 19.3558 15.0296C18.0858 16.5026 15.9564 18.1723 12.8265 18.1723C9.69765 18.1723 7.5672 16.5026 6.29727 15.0296ZM9.88685 12.8275C9.88685 12.0478 10.1966 11.3001 10.7479 10.7488C11.2992 10.1976 12.0469 9.88784 12.8265 9.88784C13.6062 9.88784 14.3539 10.1976 14.9052 10.7488C15.4565 11.3001 15.7662 12.0478 15.7662 12.8275C15.7662 13.6071 15.4565 14.3549 14.9052 14.9061C14.3539 15.4574 13.6062 15.7671 12.8265 15.7671C12.0469 15.7671 11.2992 15.4574 10.7479 14.9061C10.1966 14.3549 9.88685 13.6071 9.88685 12.8275Z" fill="white"/>
</svg>
