<svg width="41" height="41" viewBox="0 0 41 41" fill="none" xmlns="http://www.w3.org/2000/svg">
<circle cx="20.5" cy="20.5" r="20.5" fill="#F3F3F3"/>
<g clip-path="url(#clip0_182_95)">
<path d="M21.0016 15.5C20.1116 15.5 19.2416 15.7639 18.5016 16.2584C17.7616 16.7528 17.1848 17.4556 16.8442 18.2779C16.5036 19.1002 16.4145 20.005 16.5881 20.8779C16.7617 21.7508 17.1903 22.5526 17.8197 23.182C18.449 23.8113 19.2508 24.2399 20.1237 24.4135C20.9967 24.5871 21.9015 24.498 22.7237 24.1574C23.546 23.8168 24.2488 23.2401 24.7433 22.5C25.2377 21.76 25.5016 20.89 25.5016 20C25.5004 18.8069 25.0259 17.663 24.1823 16.8194C23.3386 15.9757 22.1947 15.5012 21.0016 15.5ZM21.0016 23C20.4083 23 19.8283 22.824 19.3349 22.4944C18.8416 22.1647 18.4571 21.6962 18.23 21.148C18.0029 20.5999 17.9435 19.9967 18.0593 19.4147C18.175 18.8328 18.4608 18.2982 18.8803 17.8787C19.2999 17.4591 19.8344 17.1734 20.4164 17.0576C20.9983 16.9419 21.6015 17.0013 22.1497 17.2283C22.6979 17.4554 23.1664 17.8399 23.4961 18.3333C23.8257 18.8266 24.0016 19.4066 24.0016 20C24.0016 20.7956 23.6856 21.5587 23.123 22.1213C22.5604 22.6839 21.7973 23 21.0016 23ZM31.3085 18.0509C31.2876 17.9453 31.2442 17.8454 31.1813 17.7581C31.1184 17.6707 31.0374 17.5979 30.9438 17.5447L28.1473 15.9509L28.136 12.799C28.1357 12.6905 28.1118 12.5833 28.066 12.4849C28.0202 12.3865 27.9535 12.2992 27.8707 12.229C26.8563 11.3709 25.6881 10.7134 24.4282 10.2912C24.329 10.2577 24.2238 10.2452 24.1195 10.2547C24.0152 10.2643 23.9141 10.2955 23.8226 10.3465L21.0016 11.9234L18.1779 10.3437C18.0863 10.2924 17.9851 10.2609 17.8806 10.2513C17.7761 10.2416 17.6707 10.2539 17.5713 10.2875C16.3124 10.7127 15.1455 11.3728 14.1326 12.2328C14.0499 12.3028 13.9833 12.39 13.9375 12.4882C13.8917 12.5865 13.8677 12.6935 13.8673 12.8019L13.8532 15.9565L11.0566 17.5503C10.9631 17.6036 10.8821 17.6763 10.8192 17.7637C10.7562 17.8511 10.7128 17.9509 10.692 18.0565C10.436 19.3427 10.436 20.6667 10.692 21.9528C10.7128 22.0584 10.7562 22.1583 10.8192 22.2456C10.8821 22.333 10.9631 22.4058 11.0566 22.459L13.8532 24.0528L13.8645 27.2047C13.8648 27.3132 13.8887 27.4204 13.9345 27.5188C13.9803 27.6172 14.0469 27.7045 14.1298 27.7747C15.1442 28.6328 16.3124 29.2904 17.5723 29.7125C17.6715 29.7461 17.7766 29.7585 17.8809 29.749C17.9852 29.7394 18.0864 29.7082 18.1779 29.6572L21.0016 28.0765L23.8254 29.6562C23.9371 29.7185 24.0631 29.7508 24.191 29.75C24.2729 29.75 24.3543 29.7367 24.432 29.7106C25.6907 29.286 26.8576 28.6265 27.8707 27.7672C27.9534 27.6971 28.02 27.61 28.0658 27.5117C28.1116 27.4135 28.1355 27.3065 28.136 27.1981L28.1501 24.0434L30.9466 22.4497C31.0402 22.3964 31.1212 22.3236 31.1841 22.2363C31.2471 22.1489 31.2904 22.049 31.3113 21.9434C31.5658 20.6583 31.5649 19.3357 31.3085 18.0509ZM29.9023 21.3237L27.2238 22.8472C27.1065 22.9139 27.0093 23.0111 26.9426 23.1284C26.8882 23.2222 26.831 23.3215 26.7729 23.4153C26.6985 23.5335 26.6589 23.6703 26.6585 23.81L26.6445 26.8334C25.9245 27.3988 25.1225 27.8509 24.266 28.174L21.5641 26.6684C21.452 26.6064 21.3258 26.5741 21.1976 26.5747H20.8385C20.7044 26.5713 20.5717 26.6037 20.4541 26.6684L17.7504 28.1778C16.8921 27.8571 16.0879 27.4072 15.3654 26.8437L15.3551 23.825C15.3546 23.685 15.315 23.548 15.2407 23.4294C15.1826 23.3356 15.1254 23.2419 15.072 23.1425C15.0057 23.0233 14.9085 22.9242 14.7907 22.8556L12.1095 21.3284C11.9707 20.4507 11.9707 19.5567 12.1095 18.679L14.7832 17.1528C14.9006 17.0861 14.9977 16.9889 15.0645 16.8715C15.1188 16.7778 15.176 16.6784 15.2341 16.5847C15.3085 16.4664 15.3482 16.3297 15.3485 16.19L15.3626 13.1665C16.0825 12.6012 16.8846 12.1491 17.741 11.8259L20.4391 13.3315C20.5566 13.3966 20.6893 13.429 20.8235 13.4253H21.1648C21.2989 13.4286 21.4316 13.3963 21.5491 13.3315L24.2529 11.8222C25.1112 12.1429 25.9154 12.5927 26.6379 13.1562L26.6482 16.175C26.6487 16.3149 26.6883 16.452 26.7626 16.5706C26.8207 16.6644 26.8779 16.7581 26.9313 16.8575C26.9976 16.9767 27.0947 17.0758 27.2126 17.1444L29.8938 18.6715C30.0344 19.5499 30.036 20.4449 29.8985 21.3237H29.9023Z" fill="#145FAD"/>
</g>
<defs>
<clipPath id="clip0_182_95">
<rect width="24" height="24" fill="white" transform="translate(9 8)"/>
</clipPath>
</defs>
</svg>
