<svg width="120" height="120" viewBox="0 0 120 120" fill="none" xmlns="http://www.w3.org/2000/svg">
<circle cx="60" cy="60" r="60" fill="#F3F3F3"/>
<g clip-path="url(#clip0_207_156)">
<path d="M81.3472 40H59.5948C56.6615 40 54.2805 42.381 54.2805 45.3143V45.7143H44.2615C42.7376 45.7143 41.3281 46.4762 40.49 47.7333L33.6519 58C33.4424 58.3048 33.3281 58.6857 33.3281 59.0476V72.381C33.3281 73.4286 34.1853 74.2857 35.2329 74.2857H37.4043C38.2615 77.5619 41.2138 80 44.7567 80C48.2996 80 51.2519 77.5619 52.1091 74.2857H67.8805C68.7377 77.5619 71.69 80 75.2329 80C78.7757 80 81.7281 77.5619 82.5853 74.2857H84.7567C85.8043 74.2857 86.6615 73.4286 86.6615 72.381V45.3143C86.6615 42.381 84.2805 40 81.3472 40ZM44.2615 49.5238H54.2805V70.4762H52.1091C51.2519 67.2 48.2996 64.7619 44.7567 64.7619C41.2138 64.7619 38.2615 67.2 37.4043 70.4762H37.1376V62.8571H48.5662C49.6138 62.8571 50.471 62 50.471 60.9524V53.3333C50.471 52.2857 49.6138 51.4286 48.5662 51.4286H42.6043L43.6519 49.8476C43.7853 49.6381 44.0138 49.5238 44.2615 49.5238ZM40.071 55.2381H46.6615V59.0476H37.5186L40.0519 55.2381H40.071ZM44.7567 76.1905C42.6615 76.1905 40.9472 74.4762 40.9472 72.381C40.9472 70.2857 42.6615 68.5714 44.7567 68.5714C46.8519 68.5714 48.5662 70.2857 48.5662 72.381C48.5662 74.4762 46.8519 76.1905 44.7567 76.1905ZM75.2329 76.1905C73.1376 76.1905 71.4234 74.4762 71.4234 72.381C71.4234 70.2857 73.1376 68.5714 75.2329 68.5714C77.3281 68.5714 79.0424 70.2857 79.0424 72.381C79.0424 74.4762 77.3281 76.1905 75.2329 76.1905ZM82.8519 70.4762H82.5853C81.7281 67.2 78.7757 64.7619 75.2329 64.7619C71.69 64.7619 68.7377 67.2 67.8805 70.4762H58.09V45.3143C58.09 44.4952 58.7567 43.8095 59.5948 43.8095H81.3662C82.1853 43.8095 82.871 44.4762 82.871 45.3143V70.4762H82.8519Z" fill="#145FAD"/>
</g>
<defs>
<clipPath id="clip0_207_156">
<rect width="53.3333" height="40" fill="white" transform="translate(33.3281 40)"/>
</clipPath>
</defs>
</svg>
