<svg width="41" height="41" viewBox="0 0 41 41" fill="none" xmlns="http://www.w3.org/2000/svg">
<circle cx="20.5" cy="20.5" r="20.5" fill="#F3F3F3"/>
<g clip-path="url(#clip0_182_103)">
<path d="M13.0368 14.3928C12.6769 14.3928 12.3317 14.5357 12.0772 14.7903C11.8227 15.0448 11.6797 15.39 11.6797 15.7499V27.9642C11.6797 28.3241 11.8227 28.6693 12.0772 28.9238C12.3317 29.1783 12.6769 29.3213 13.0368 29.3213H27.9654C28.3253 29.3213 28.6705 29.1783 28.925 28.9238C29.1796 28.6693 29.3225 28.3241 29.3225 27.9642V15.7499C29.3225 15.39 29.1796 15.0448 28.925 14.7903C28.6705 14.5357 28.3253 14.3928 27.9654 14.3928H25.2511M15.7511 11.6785V17.107M25.2511 11.6785V17.107M15.7511 14.3928H22.5368" stroke="#145FAD" stroke-width="1.3" stroke-linecap="round" stroke-linejoin="round"/>
<path d="M19.7541 18.2878C19.8125 18.1373 19.9151 18.008 20.0483 17.9168C20.1815 17.8256 20.3391 17.7769 20.5005 17.7769C20.662 17.7769 20.8196 17.8256 20.9528 17.9168C21.086 18.008 21.1886 18.1373 21.247 18.2878L22.1155 20.4999H24.4363C24.588 20.5115 24.7335 20.5654 24.8562 20.6554C24.9788 20.7455 25.0738 20.8681 25.1303 21.0094C25.1869 21.1507 25.2027 21.305 25.1759 21.4549C25.1492 21.6047 25.081 21.744 24.9791 21.857L22.9298 23.7028L23.7984 25.4399C23.877 25.5924 23.9037 25.7664 23.8743 25.9355C23.8449 26.1045 23.761 26.2593 23.6355 26.3763C23.5109 26.4948 23.3525 26.5716 23.1822 26.5959C23.012 26.6202 22.8384 26.5909 22.6855 26.512L20.5005 25.3178L18.3155 26.512C18.1627 26.5909 17.9891 26.6202 17.8189 26.5959C17.6486 26.5716 17.4902 26.4948 17.3655 26.3763C17.24 26.2593 17.1562 26.1045 17.1268 25.9355C17.0974 25.7664 17.1241 25.5924 17.2027 25.4399L18.0713 23.7028L16.022 21.857C15.9201 21.744 15.8519 21.6047 15.8252 21.4549C15.7984 21.305 15.8142 21.1507 15.8707 21.0094C15.9273 20.8681 16.0223 20.7455 16.1449 20.6554C16.2676 20.5654 16.4131 20.5115 16.5648 20.4999H18.8855L19.7541 18.2878Z" stroke="#145FAD" stroke-width="1.3" stroke-linecap="round" stroke-linejoin="round"/>
</g>
<defs>
<clipPath id="clip0_182_103">
<rect width="19" height="19" fill="white" transform="translate(11 11)"/>
</clipPath>
</defs>
</svg>
