<svg width="120" height="120" viewBox="0 0 120 120" fill="none" xmlns="http://www.w3.org/2000/svg">
<circle cx="60" cy="60" r="60" fill="#F3F3F3"/>
<g clip-path="url(#clip0_207_154)">
<path d="M79.0357 40.6667H40.9643C37.12 40.6667 34 43.7601 34 47.5715V72.4471C34 76.2585 37.12 79.3518 40.9643 79.3518H79.0357C82.88 79.3518 86 76.2585 86 72.4471V47.5715C86 43.7601 82.88 40.6667 79.0357 40.6667ZM52.5714 55.3969C52.5714 57.4223 50.9 59.0794 48.8571 59.0794C46.8143 59.0794 45.1429 57.4223 45.1429 55.3969C45.1429 53.3715 46.8143 51.7144 48.8571 51.7144C50.9 51.7144 52.5714 53.3715 52.5714 55.3969ZM47 62.5042C47.5943 62.6515 48.2071 62.762 48.8571 62.762C49.5071 62.762 50.12 62.6515 50.7143 62.5042V67.5309L50.1757 66.9969C49.4514 66.2788 48.2814 66.2788 47.5571 66.9969L47.0186 67.5309V62.5042H47ZM50.7143 44.3493V48.2896C50.12 48.1423 49.5071 48.0318 48.8571 48.0318C48.2071 48.0318 47.5943 48.1423 47 48.2896V44.3493H50.7143ZM82.2857 72.4287C82.2857 74.1963 80.8371 75.6509 79.0357 75.6509H40.9643C39.1814 75.6509 37.7143 74.2147 37.7143 72.4287V47.5715C37.7143 45.8039 39.1629 44.3493 40.9643 44.3493H43.2857V49.8731C43.2857 50.0756 43.3414 50.2598 43.3971 50.4439C42.19 51.7512 41.4286 53.482 41.4286 55.3969C41.4286 57.3118 42.19 59.0426 43.3971 60.3499C43.3414 60.534 43.2857 60.7182 43.2857 60.9207V71.9683C43.2857 72.7048 43.7314 73.3861 44.4371 73.6623C45.1243 73.9569 45.9229 73.7912 46.4614 73.2572L48.8571 70.882L51.2529 73.2572C51.6057 73.6071 52.0886 73.7912 52.5714 73.7912C52.8129 73.7912 53.0543 73.7544 53.2771 73.6439C53.9643 73.3677 54.4286 72.6864 54.4286 71.9499V60.9023C54.4286 60.6998 54.3729 60.5156 54.3171 60.3315C55.5243 59.0242 56.2857 57.2934 56.2857 55.3785C56.2857 53.4636 55.5243 51.7328 54.3171 50.4255C54.3729 50.2414 54.4286 50.0572 54.4286 49.8547V44.3493H79.0357C80.8186 44.3493 82.2857 45.7855 82.2857 47.5715V72.4471V72.4287Z" fill="#145FAD"/>
<path d="M76.7143 51.7144H61.8571C60.8357 51.7144 60 52.5429 60 53.5556C60 54.5683 60.8357 55.3969 61.8571 55.3969H76.7143C77.7357 55.3969 78.5714 54.5683 78.5714 53.5556C78.5714 52.5429 77.7357 51.7144 76.7143 51.7144Z" fill="#145FAD"/>
<path d="M76.7143 60.9207H61.8571C60.8357 60.9207 60 61.7492 60 62.7619C60 63.7746 60.8357 64.6032 61.8571 64.6032H76.7143C77.7357 64.6032 78.5714 63.7746 78.5714 62.7619C78.5714 61.7492 77.7357 60.9207 76.7143 60.9207Z" fill="#145FAD"/>
</g>
<defs>
<clipPath id="clip0_207_154">
<rect width="52" height="38.6667" fill="white" transform="translate(34 40.6667)"/>
</clipPath>
</defs>
</svg>
