<svg width="41" height="41" viewBox="0 0 41 41" fill="none" xmlns="http://www.w3.org/2000/svg">
<circle cx="20.5" cy="20.5" r="20.5" fill="#F3F3F3"/>
<path d="M10.5 14C10.5 13.2044 10.8161 12.4413 11.3787 11.8787C11.9413 11.3161 12.7044 11 13.5 11H28.5C29.2956 11 30.0587 11.3161 30.6213 11.8787C31.1839 12.4413 31.5 13.2044 31.5 14V23C31.5 23.7957 31.1839 24.5587 30.6213 25.1213C30.0587 25.6839 29.2956 26 28.5 26H19.5V25.469C19.7641 25.1699 19.9977 24.8453 20.1975 24.5H28.5C28.8978 24.5 29.2794 24.342 29.5607 24.0607C29.842 23.7794 30 23.3978 30 23V14C30 13.6022 29.842 13.2206 29.5607 12.9393C29.2794 12.658 28.8978 12.5 28.5 12.5H13.5C13.1022 12.5 12.7206 12.658 12.4393 12.9393C12.158 13.2206 12 13.6022 12 14V16.3025C11.4369 16.6288 10.9303 17.0442 10.5 17.5325V14ZM18.969 17C18.0172 16.1582 16.8218 15.6417 15.5565 15.5255C15.6196 15.5086 15.6847 15.5 15.75 15.5H26.25C26.4489 15.5 26.6397 15.579 26.7803 15.7197C26.921 15.8603 27 16.0511 27 16.25C27 16.4489 26.921 16.6397 26.7803 16.7803C26.6397 16.921 26.4489 17 26.25 17H18.969ZM21.75 20C21.5511 20 21.3603 20.079 21.2197 20.2197C21.079 20.3603 21 20.5511 21 20.75C21 20.9489 21.079 21.1397 21.2197 21.2803C21.3603 21.421 21.5511 21.5 21.75 21.5H26.25C26.4489 21.5 26.6397 21.421 26.7803 21.2803C26.921 21.1397 27 20.9489 27 20.75C27 20.5511 26.921 20.3603 26.7803 20.2197C26.6397 20.079 26.4489 20 26.25 20H21.75ZM19.5 21.5C19.5 22.0909 19.3836 22.6761 19.1575 23.2221C18.9313 23.768 18.5998 24.2641 18.182 24.682C17.7641 25.0998 17.268 25.4313 16.7221 25.6575C16.1761 25.8836 15.5909 26 15 26C14.4091 26 13.8239 25.8836 13.2779 25.6575C12.732 25.4313 12.2359 25.0998 11.818 24.682C11.4002 24.2641 11.0687 23.768 10.8425 23.2221C10.6164 22.6761 10.5 22.0909 10.5 21.5C10.5 20.3065 10.9741 19.1619 11.818 18.318C12.6619 17.4741 13.8065 17 15 17C16.1935 17 17.3381 17.4741 18.182 18.318C19.0259 19.1619 19.5 20.3065 19.5 21.5ZM12 26.6645V29.75C11.9991 29.886 12.0356 30.0195 12.1054 30.1362C12.1752 30.2528 12.2758 30.3481 12.396 30.4115C12.5158 30.4752 12.6506 30.5052 12.7861 30.4984C12.9217 30.4915 13.0528 30.448 13.1655 30.3725L15 29.15L16.8345 30.374C16.9189 30.4306 17.014 30.4694 17.1139 30.488C17.2139 30.5066 17.3166 30.5046 17.4157 30.4821C17.5148 30.4597 17.6084 30.4172 17.6905 30.3574C17.7727 30.2975 17.8417 30.2215 17.8935 30.134C17.9629 30.0174 17.9997 29.8842 18 29.7485V26.6645C17.092 27.2044 16.0564 27.4923 15 27.4985C13.9436 27.4923 12.908 27.2044 12 26.6645Z" fill="#145FAD"/>
</svg>
