<svg width="120" height="120" viewBox="0 0 120 120" fill="none" xmlns="http://www.w3.org/2000/svg">
<circle cx="60" cy="60" r="60" fill="#F3F3F3"/>
<g clip-path="url(#clip0_207_153)">
<path d="M79.6158 44.8429L62.5307 37.2523C60.7978 36.4957 58.8208 36.4957 57.0879 37.2523L39.9784 44.8429C37.5621 45.9169 36 48.3332 36 50.9692V69.0305C36 71.6909 37.5621 74.0828 39.9784 75.1567L57.0635 82.7474C57.9177 83.1379 58.8696 83.3332 59.7971 83.3332C60.7245 83.3332 61.652 83.1379 62.5307 82.7474L79.6158 75.1567C82.0321 74.0828 83.5941 71.6665 83.5941 69.0305V50.9692C83.5941 48.3088 82.0321 45.9169 79.6158 44.8429ZM58.5523 40.5961C59.3333 40.2544 60.2364 40.2544 61.0418 40.5961L77.2727 47.7962L59.8215 55.5577L42.3459 47.7962L58.5523 40.5961ZM41.4672 71.813C40.3689 71.3248 39.6611 70.2265 39.6611 69.0305V50.9692C39.6611 50.9692 39.6855 50.7495 39.7099 50.6275L57.9665 58.7307V79.1351L41.4672 71.813ZM79.9331 69.0305C79.9331 70.2265 79.2252 71.3248 78.1269 71.813L61.6276 79.1351V58.7551L79.8842 50.6519C79.8842 50.6519 79.9331 50.8715 79.9331 50.9936V69.0549V69.0305Z" fill="#145FAD"/>
<path d="M71.2667 67.5416L66.3853 69.7138C65.4578 70.1287 65.0429 71.2027 65.4578 72.1301C65.7507 72.8135 66.4341 73.2285 67.1419 73.2285C67.386 73.2285 67.6545 73.1796 67.8741 73.082L72.7556 70.9098C73.6831 70.4948 74.098 69.4209 73.6831 68.4935C73.2681 67.566 72.1942 67.1511 71.2667 67.566V67.5416Z" fill="#145FAD"/>
</g>
<defs>
<clipPath id="clip0_207_153">
<rect width="47.5941" height="46.6667" fill="white" transform="translate(36 36.6665)"/>
</clipPath>
</defs>
</svg>
