<svg width="41" height="41" viewBox="0 0 41 41" fill="none" xmlns="http://www.w3.org/2000/svg">
<circle cx="20.5" cy="20.5" r="20.5" fill="#F3F3F3"/>
<path d="M25.3359 16.7501C25.3359 22.5242 16.6693 22.5242 16.6693 16.7501H18.8359C18.8359 19.6426 23.1693 19.6426 23.1693 16.7501M29.6693 26.5001V29.7501H12.3359V26.5001C12.3359 23.6076 18.1101 22.1667 21.0026 22.1667C23.8951 22.1667 29.6693 23.6076 29.6693 26.5001ZM27.6109 26.5001C27.6109 25.8067 24.2201 24.2251 21.0026 24.2251C17.7851 24.2251 14.3943 25.8067 14.3943 26.5001V27.6917H27.6109M21.5443 9.16675C21.8476 9.16675 22.0859 9.40508 22.0859 9.70841V12.9584H23.1693V10.2501C23.936 10.6049 24.5783 11.182 25.013 11.9064C25.4476 12.6308 25.6545 13.4691 25.6068 14.3126C25.6068 14.3126 26.3651 14.4642 26.4193 15.6667H15.5859C15.5859 14.4642 16.3984 14.3126 16.3984 14.3126C16.3507 13.4691 16.5576 12.6308 16.9923 11.9064C17.4269 11.182 18.0693 10.6049 18.8359 10.2501V12.9584H19.9193V9.70841C19.9193 9.40508 20.1576 9.16675 20.4609 9.16675" fill="#145FAD"/>
</svg>
