<svg width="41" height="41" viewBox="0 0 41 41" fill="none" xmlns="http://www.w3.org/2000/svg">
<circle cx="20.5" cy="20.5" r="20.5" fill="#F3F3F3"/>
<path d="M20.1628 29.1345C20.1188 29.3103 20.0174 29.4663 19.8746 29.5778C19.7318 29.6893 19.5558 29.7499 19.3746 29.75C19.3062 29.7503 19.238 29.7421 19.1715 29.7256L15.9215 28.9131C15.831 28.8904 15.7452 28.8522 15.6676 28.8003L13.2301 27.1753C13.0509 27.0558 12.9264 26.8698 12.8843 26.6585C12.8421 26.4472 12.8856 26.2278 13.0052 26.0485C13.1248 25.8693 13.3107 25.7448 13.522 25.7027C13.7333 25.6605 13.9527 25.704 14.132 25.8236L16.4517 27.3703L19.5656 28.1493C19.6696 28.1746 19.7677 28.2201 19.854 28.2833C19.9404 28.3465 20.0135 28.4262 20.069 28.5178C20.1245 28.6093 20.1613 28.7109 20.1774 28.8168C20.1935 28.9226 20.1885 29.0306 20.1628 29.1345ZM33.6391 19.3378C33.5724 19.5403 33.4663 19.7275 33.3269 19.8888C33.1874 20.05 33.0174 20.1821 32.8266 20.2772L30.4216 21.4797L24.8275 27.0748C24.7283 27.174 24.605 27.2458 24.4697 27.2831C24.3344 27.3205 24.1918 27.3222 24.0557 27.2881L17.5557 25.6631C17.4568 25.6383 17.3635 25.5952 17.2804 25.5361L11.6417 21.5102L9.17574 20.2772C8.79035 20.0846 8.49724 19.7467 8.36088 19.338C8.22451 18.9293 8.25605 18.4832 8.44855 18.0977L10.9724 13.0511C11.165 12.6657 11.5029 12.3726 11.9116 12.2362C12.3203 12.0998 12.7664 12.1314 13.1519 12.3239L15.3924 13.4411L20.7752 11.9034C20.9212 11.8616 21.076 11.8616 21.2221 11.9034L26.6049 13.4411L28.8454 12.3239C29.2308 12.1314 29.677 12.0998 30.0857 12.2362C30.4944 12.3726 30.8322 12.6657 31.0249 13.0511L33.5487 18.0977C33.645 18.2882 33.7025 18.4958 33.718 18.7087C33.7336 18.9215 33.7067 19.1354 33.6391 19.3378ZM28.9489 20.652L26.1854 15.125H22.9537L18.5621 19.3906C19.8479 20.2122 21.8639 20.4387 23.6728 18.6157C23.814 18.4733 24.003 18.3882 24.2032 18.3767C24.4035 18.3653 24.6009 18.4283 24.7575 18.5537L28.2522 21.3538L28.9489 20.652ZM9.90191 18.8239L11.6986 19.7227L14.2224 14.6761L12.4257 13.7772L9.90191 18.8239ZM27.0934 22.5045L24.2791 20.2508C22.2946 21.8758 19.7748 22.0901 17.6867 20.7586C17.4813 20.628 17.3079 20.4528 17.1792 20.2462C17.0506 20.0395 16.97 19.8065 16.9435 19.5645C16.917 19.3226 16.9452 19.0777 17.026 18.8481C17.1068 18.6184 17.2382 18.4099 17.4104 18.2378C17.4129 18.2349 17.4156 18.2322 17.4186 18.2297L21.9746 13.8107L20.9996 13.5325L15.8789 14.996L13.0991 20.5545L18.096 24.1244L24.0008 25.6001L27.0934 22.5045ZM32.0943 18.8239L29.5736 13.7772L27.7769 14.6761L30.3007 19.7227L32.0943 18.8239Z" fill="#145FAD"/>
</svg>
